<?xml version="1.0" encoding="UTF-8"?><svg id="Layer_2" xmlns="http://www.w3.org/2000/svg" viewBox="0 0 717.57 251.49"><g id="Layer_1-2"><g><g><path d="m42.72,23.32v84.81h33.61v26.39H7.85V23.32h34.87Z" style="fill:#fff;"/><path d="m174.33,117.71h-37.07l-5.5,16.81h-36.59l40.68-111.2h40.21l40.52,111.2h-36.75l-5.5-16.81Zm-18.53-57.17l-10.05,30.94h20.1l-10.05-30.94Z" style="fill:#fff;"/><path d="m232.28,23.32h39.89l17.75,39.42,17.75-39.42h39.26l-39.89,77.43v33.77h-34.87v-33.77l-39.89-77.43Z" style="fill:#fff;"/><path d="m477.13,23.32v111.2h-34.87l-36.91-55.91v55.91h-34.87V23.32h34.87l36.91,56.86V23.32h34.87Z" style="fill:#fff;"/><path d="m582.66,51.12h-39.26v13.66h34.55v26.23h-34.55v15.71h39.26v27.8h-74.13V23.32h74.13v27.8Z" style="fill:#fff;"/><path d="m655.06,135.61c-25.44,0-45.39-11.78-46.96-36.75h37.07c.63,8.17,5.03,9.58,8.48,9.58s6.75-1.57,6.75-5.5c-.16-15.08-52.61-9.58-51.99-47.59,0-22.3,18.85-33.92,42.56-33.92,26.86,0,44.13,12.88,45.08,35.97h-37.54c-.31-6.75-3.93-8.8-7.7-8.8-2.83,0-5.03,1.88-5.03,5.65,0,13.98,51.67,11.62,51.67,45.86,0,20.42-15.55,35.5-42.41,35.5Z" style="fill:#fff;"/></g><g><path d="m372.01,213.34c-9.59,0-15.89-5.48-16.17-12.81h5.07c.41,3.97,3.36,8.77,11.1,8.77,6.64,0,10.55-3.9,10.55-8.84,0-14.11-26.3-5.21-26.3-23.22,0-7.4,6.1-12.81,15.34-12.81s14.59,5.07,15.41,11.64h-5.21c-.55-3.36-3.77-7.47-10.41-7.53-5.62-.07-10.28,3.01-10.28,8.56,0,13.84,26.3,5.34,26.3,23.15,0,6.51-5.27,13.08-15.41,13.08Z" style="fill:#fff;"/><path d="m428.52,168.89h-20.21v17.88h18.15v3.97h-18.15v18.15h20.21v3.97h-25v-47.95h25v3.97Z" style="fill:#fff;"/><path d="m459.2,164.98c11.1,0,16.3,6.03,16.3,13.9,0,6.58-3.7,12.12-11.78,13.63l12.33,20.34h-5.75l-11.85-20h-8.84v20h-4.79v-47.88h14.38Zm0,4.04h-9.59v19.93h9.66c7.81,0,11.3-4.25,11.3-10.07s-3.29-9.86-11.37-9.86Z" style="fill:#fff;"/><path d="m524.75,164.98h5.07l-18.15,47.88h-5.48l-18.15-47.88h5.21l15.69,42.67,15.82-42.67Z" style="fill:#fff;"/><path d="m543.85,164.98h4.79v47.88h-4.79v-47.88Z" style="fill:#fff;"/><path d="m587.62,164.44c10.69,0,18.63,5.34,22.06,14.52h-5.62c-2.67-6.37-8.29-10.34-16.44-10.34-10.48,0-18.49,7.74-18.49,20.28s8.01,20.21,18.49,20.21c8.15,0,13.77-3.97,16.44-10.21h5.62c-3.42,9.04-11.37,14.38-22.06,14.38-13.29,0-23.43-10-23.43-24.38s10.14-24.45,23.43-24.45Z" style="fill:#fff;"/><path d="m651.04,168.89h-20.21v17.88h18.15v3.97h-18.15v18.15h20.21v3.97h-25v-47.95h25v3.97Z" style="fill:#fff;"/><path d="m681.86,213.34c-9.59,0-15.89-5.48-16.17-12.81h5.07c.41,3.97,3.36,8.77,11.1,8.77,6.64,0,10.55-3.9,10.55-8.84,0-14.11-26.3-5.21-26.3-23.22,0-7.4,6.1-12.81,15.34-12.81s14.59,5.07,15.41,11.64h-5.21c-.55-3.36-3.77-7.47-10.41-7.53-5.62-.07-10.27,3.01-10.27,8.56,0,13.84,26.3,5.34,26.3,23.15,0,6.51-5.27,13.08-15.41,13.08Z" style="fill:#fff;"/></g></g></g></svg>