<?xml version="1.0" encoding="UTF-8"?><svg id="Icon" xmlns="http://www.w3.org/2000/svg" viewBox="0 0 1000 1000"><path d="m231.65,233.92v408.78h162v127.18H63.6V233.92h168.05Z" style="fill:#1d1d1b;"/><path d="m732.01,775.17c-122.63,0-218.77-56.77-226.34-177.14h178.65c3.03,39.36,24.22,46.18,40.88,46.18s32.55-7.57,32.55-26.5c-.76-72.67-253.59-46.18-250.57-229.37,0-107.49,90.84-163.51,205.15-163.51,129.45,0,212.71,62.07,217.26,173.35h-180.92c-1.51-32.55-18.92-42.39-37.09-42.39-13.63,0-24.22,9.08-24.22,27.25,0,67.37,249.05,56.02,249.05,221.04,0,98.41-74.94,171.08-204.39,171.08Z" style="fill:#1d1d1b;"/></svg>