<?xml version="1.0" encoding="UTF-8"?>
<svg id="Layer_1" data-name="Layer 1" xmlns="http://www.w3.org/2000/svg" viewBox="0 0 1773 1773">
  <path d="M1745.96,13.63v1605.65h-450.69c-.29-.01-.52-.24-.52-.53h0c-.03-15.67-.04-26.95-.03-33.84.03-29.7-7.35-57.29-22.14-82.76-25.88-44.57-71.69-74.41-123.86-78.09-.26-.02-.48.18-.5.44,0,.01,0,.02,0,.03v155.92c0,.81-.65,1.46-1.46,1.46h-7.23c-.36,0-.65.29-.65.65v36.24c0,.71-.58,1.29-1.29,1.29h-187.5c-.41,0-.74.33-.74.74v138.58H27.05V14.96c0-.76.6-1.37,1.35-1.37l1717.56.05ZM1742.21,420.22V17.87c0-.15-.13-.27-.28-.27h-187.11c-.4,0-.72.32-.72.71v38.32c0,.14.11.25.25.25,38.33-.07,90.37-.06,156.12.01,1.59,0,2.39.85,2.39,2.52.09,120.26.09,240.47.02,360.63,0,.37.3.67.68.67h28.16c.27,0,.49-.22.49-.49ZM64.34,216.13c.3,0,.55-.25.55-.55h0V58.65c0-.88.72-1.6,1.6-1.6h0c168.87-.27,451.64-.29,848.31-.07,1.47,0,2.21.76,2.21,2.28.03,26.91.02,85.88-.05,176.91,0,.21.17.39.38.4,8.13.52,16.23,1.74,24.32,3.66.26.06.53-.1.59-.37,0-.04.01-.07.01-.11V58.65c0-.94.76-1.71,1.7-1.71h0c86.35,0,165.85,0,238.5-.02,1.58,0,2.37.75,2.37,2.24.03,36.37.03,153.38-.01,351.03,0,1.93-.95,2.89-2.86,2.89-101.57-.03-189.78-.04-264.63-.03-.35,0-.64.29-.64.64v26.62c0,.15.12.27.27.27h292.41c.36,0,.66-.3.66-.66V58.79c0-1.03.83-1.86,1.86-1.86h113.69c.31,0,.57-.26.57-.57V18.46c0-.47-.39-.86-.86-.86H32.32c-.6,0-1.08.48-1.08,1.07h0v196.81c0,.36.29.65.65.65h32.45ZM1550.03,18.26c0-.33-.27-.6-.6-.6h-218.62c-.33,0-.6.27-.6.6v17.86c0,.33.27.6.6.6h218.62c.33,0,.6-.27.6-.6v-17.86ZM1550.07,41.42c0-.31-.25-.56-.56-.56h-218.76c-.31,0-.56.25-.56.56h0v14.94c0,.31.25.56.56.56h218.76c.31,0,.56-.25.56-.56v-14.94ZM69.26,1460.32s-.1-.04-.14,0c-.02.02-.03.05-.03.08v260.71c0,.24.19.44.43.44h841.28c.47,0,.85-.39.85-.86v-153.27c0-.23-.19-.42-.42-.42h-151.62c-.37,0-.67-.3-.68-.67-.92-35.24,9.13-69.9,29.47-98.6,28.17-39.76,74-64.67,122.79-67.67.24-.02.42-.22.42-.46,0-214.01,0-446.88.05-698.61,0-2.16-.34-3.96,2.18-3.98,10.41-.05,85-.07,223.79-.04,1.71,0,2.58.74,2.61,2.23.06,3.05.08,12.63.05,28.74,0,.19.15.34.34.34h7.29c.92,0,1.67.75,1.67,1.67h0v156.23c0,.28.22.51.5.51.01,0,.03,0,.04,0,55.46-3.48,104.9-35.8,131.95-83.88,9.67-17.18,16-35.99,18.99-56.43,1.03-7.03,1.52-15.02,1.46-23.96-.04-5.17-.05-13.24-.02-24.22,0-.71.57-1.28,1.28-1.28h404.2c.37,0,.67-.3.67-.67v-301.27c0-.27-.22-.49-.49-.49-26.21-.02-70.62,0-133.21.06-2.54,0-3.23-1.05-3.23-3.55,0-91.78-.01-201.69-.04-329.72,0-.14-.11-.26-.25-.26h-356.82c-.27,0-.48.22-.48.49v15.83c0,.23.18.41.41.41h88.49c1.03,0,1.87.84,1.87,1.87v332.17c0,.7-.56,1.26-1.26,1.26h-88.91c-.31,0-.56.25-.56.56,0,0,0,0,0,.01.09,8.13.09,17.24,0,27.31-.02,2.02.16,3.72-1.97,3.73-33.78.13-132.37.16-295.78.09-1.81,0-3.72.12-3.72-1.84-.02-12.5-.02-25.76-.01-39.79,0-1.52.92-2.28,2.75-2.28,40.43.03,87.32.03,140.67,0,.31,0,.57-.26.57-.58-.06-29.69-7.26-57.61-21.61-83.75-21.68-39.51-60.73-68-105.62-74.62-5.01-.74-9.98-1.29-14.89-1.65-1.03-.07-1.83-.93-1.83-1.97V61.82c0-.44-.36-.8-.8-.8h-291.98c-.33,0-.6.27-.6.6-.07,26.39-.08,73.75-.03,142.06,0,1.9-.95,2.85-2.86,2.85-111.39.03-226.76.03-346.09,0-2.12,0-3.01-.42-3.01-2.61,0-39.77.02-87.23.07-142.39,0-.26-.21-.47-.47-.47H69.6c-.31,0-.57.26-.57.57v634.7c0,.33.27.6.6.6h182.23c.34,0,.61-.27.61-.61h0v-84.62c0-.76.62-1.38,1.38-1.38h0c174.44,0,302.22-.02,383.33-.07,2.36,0,3.66.25,3.67,2.86.05,33.12.04,71.98-.03,116.57,0,1.82-1.04,2.73-3.1,2.74-133.95.01-323.35,0-568.18-.06-.28,0-.51.23-.51.51h0v274.5c0,.13.1.23.22.24.09,0,.18-.05.22-.14,3.04-6.72,8.37-10.07,15.99-10.06,23.68.05,58.92.05,105.72,0,6.13,0,9.97,2.49,11.54,7.5.57,1.83.82,4.53.73,8.09-.16,6.72,1.36,13.3-4.18,17.98-.25.21-.29.59-.07.85.01.01.02.02.03.03,3.4,3.41,4.14,6.63,4.13,12.17-.11,43.31-.12,79.78-.04,109.4,0,5.2-.74,8.26-4.02,11.91-.38.42-.37,1.07.03,1.49,3.59,3.75,4,6.64,3.99,12.18-.03,23.07-.04,60.04-.02,110.91,0,3.66-1.32,7.08-3.96,10.26-.23.28-.22.68.02.94,4.44,4.97,3.93,9.44,3.92,17.39-.05,35.62-.05,70.92-.01,105.9,0,4.44-.54,7.08-3.46,10.1-.18.19-.19.48-.02.68,2.27,2.61,3.41,5.18,3.44,7.73.08,9.37.11,14.46.09,15.29-.11,4.61-1.83,7.84-5.15,9.69-1.62.91-5.34,1.36-11.15,1.35-28.29-.02-62.23-.02-101.82.01-5.66,0-10.2-2.08-13.62-6.23-1.31-1.59-2.08-2.5-2.32-2.71ZM1061.53,408.99h118.51c.35,0,.63-.28.63-.63V61.58c0-.31-.26-.57-.57-.57h-233.42c-.2,0-.36.16-.36.36v179.53c0,.33.22.62.54.7,19.87,5.27,37.6,14.25,53.19,26.95,14.21,11.58,25.73,24.48,34.54,38.71,15.01,24.24,23.61,51.43,25.78,81.58.14,1.99.32,8.5.55,19.55.01.33.28.6.61.6ZM1708.59,61.47c0-.28-.22-.5-.5-.5h-38.98c-.28,0-.5.22-.5.5v328.36c0,.28.22.5.5.5h38.98c.28,0,.5-.22.5-.5V61.47ZM615.34,62c0-.18-.14-.32-.32-.32h-343.16c-.18,0-.32.14-.32.32h0v140.04c0,.18.14.32.32.32h343.16c.18,0,.32-.14.32-.32h0V62ZM1664.37,389.74V61.98c0-.15-.12-.27-.26-.27h-88.15c-.17,0-.31.14-.31.32h0v95.96c0,.19.15.34.34.34.08,0,.15-.03.21-.07,2.77-2.07,5.94-3.09,9.51-3.08,2.09,0,18.69-.06,49.78-.2,4.35-.02,7.53.28,9.53.9,9.05,2.8,14.34,10.78,14.73,20.28.03.74.02,20.07-.02,57.99-.01,9.4-4.82,16.86-13.7,20.09-2.38.87-6.22,1.23-11.51,1.09-1.95-.05-17.73-.07-47.32-.04-4.21,0-7.91-1.04-11.1-3.14-.14-.09-.32-.05-.41.08-.03.05-.05.1-.05.16v137.64c0,.17.14.31.32.31h87.8c.34,0,.61-.27.61-.61ZM1300.65,82.33c0-.33-.27-.6-.6-.6h-85.26c-.33,0-.6.27-.6.6v326.08c0,.33.27.6.6.6h85.26c.33,0,.6-.27.6-.6V82.33ZM1575.58,168.49l.12,73.62c.01,5.1,4.16,9.23,9.26,9.22h0l53.25-.09c9.75-.02,17.64-8.04,17.62-17.93h0s-.1-56.3-.1-56.3c-.02-9.89-7.93-17.89-17.68-17.87l-53.25.09c-5.1.01-9.23,4.16-9.22,9.26h0ZM64.84,220.69c0-.34-.27-.61-.61-.61H31.87c-.34,0-.61.27-.61.61h0v358.72c0,.34.27.61.61.61h32.36c.34,0,.61-.27.61-.61V220.69ZM1056.54,405.47c0-.28-.22-.5-.5-.5h-138.86c-.28,0-.5.22-.5.5v3c0,.28.22.5.5.5h138.86c.28,0,.5-.22.5-.5v-3ZM1725.52,425.19c0-.25-.2-.45-.45-.45h-11.72c-.25,0-.45.2-.45.45h0v254.62c0,.25.2.45.45.45h11.72c.25,0,.45-.2.45-.45h0v-254.62ZM1742.12,425.19c0-.28-.22-.5-.5-.5h-11.46c-.28,0-.5.22-.5.5v254.58c0,.28.22.5.5.5h11.46c.28,0,.5-.22.5-.5v-254.58ZM32.05,584.07c-.45,0-.81.36-.81.81v211.18c0,.45.36.81.81.81h31.97c.45,0,.81-.36.81-.81h0v-67.03c0-.45.36-.81.81-.81h570.29c.45,0,.81-.36.81-.81h0v-25.53c0-.45-.36-.81-.81-.81H65.63c-.45,0-.81-.36-.81-.81v-115.38c0-.45-.36-.81-.81-.81h-31.96ZM636.68,614.89c0-.21-.17-.38-.38-.38h-379.36c-.21,0-.38.17-.38.38h0v81.66c0,.21.17.38.38.38h379.36c.21,0,.38-.17.38-.38v-81.66ZM1306.71,728.16c18.67.13,153.25.13,403.75.01,1.71,0,2.56.75,2.56,2.26.09,78.95.09,165.37,0,259.27,0,.58.47,1.05,1.05,1.05h27.59c.3,0,.54-.24.54-.54h0v-305.43c0-.24-.2-.44-.44-.44h-28.37c-.28,0-.51.23-.52.51-.06,2.37-.06,6.99,0,13.85.01,1.57-.71,2.36-2.16,2.36-151.53.02-286.13,0-403.78-.06-.31,0-.57.26-.57.57v26.24c0,.19.16.35.35.35ZM1136.29,727.9v-26.23c0-.32-.26-.58-.58-.58h-219.49c-.22,0-.39.17-.39.39h0v697.85c0,.2.17.37.37.37h24.26c.43,0,.77-.34.77-.77h0c-.13-146.07-.17-368.74-.11-668.01,0-1.79.8-2.68,2.39-2.68,63.45-.04,127.6-.04,192.43.01.19,0,.35-.16.35-.35h0ZM1135.9,732.37h-190.2c-.25,0-.45.2-.45.45h0v669.87c0,.59-.47,1.06-1.06,1.06h-.01c-7.37-.06-15.52-.07-24.47-.04-26.84.11-51.92,6.67-75.24,19.69-30.56,17.07-53.22,41.79-67.98,74.16-7.71,16.91-12.4,37.04-13.45,55.67-.02.19.13.36.33.38.01,0,.02,0,.03,0h150.87c.93,0,1.68.76,1.68,1.69h0v7.12c0,.22.18.4.41.4h28.03c.65,0,1.18.53,1.18,1.18v13.24c0,.35.28.63.62.63h187.66c.47,0,.85-.38.85-.85v-156.15c0-.61.49-1.11,1.1-1.12,50.37-.98,96.48,22.29,128,61.61,21.46,26.78,33.28,61.13,34.76,95.66.02.39.34.69.73.69h408.33c.57,0,1.03-.46,1.03-1.03v-373.22c0-.4-.32-.73-.72-.73-90.52,0-136.68,0-138.47-.01-7.98-.02-14.76-5.03-17.15-12.44-.59-1.83-.87-5.26-.86-10.29.12-43.75.12-82.28-.01-115.57-.02-5.49.42-9.26,1.31-11.29,1.95-4.44,5.19-7.66,9.71-9.65,1.95-.86,5.43-1.29,10.44-1.29,46.21,0,91.24.02,135.1.04.35,0,.64-.29.64-.65h0v-308.37c0-.46-.38-.84-.84-.84h-400.89c-.29,0-.52.22-.54.5-2.6,48.04-25.03,91.93-62.7,121.78-30.34,24.04-64.84,36.17-103.49,36.38-1.05,0-1.94-.07-2.66-.23-.71-.16-1.22-.79-1.22-1.52v-156.51c0-.22-.18-.4-.4-.4ZM1145.7,732.7c0-.28-.22-.5-.5-.5h-4.34c-.28,0-.5.22-.5.5v153.62c0,.28.22.5.5.5h4.34c.28,0,.5-.22.5-.5v-153.62ZM65.36,1725.95c-.3,0-.54-.24-.54-.54h0v-923.99c0-.3-.24-.54-.54-.54H31.82c-.3,0-.54.24-.54.54v953.63c0,.3.24.54.54.54h216.41c.3,0,.54-.24.54-.54h0v-28.56c0-.3-.24-.54-.54-.54H65.36ZM1725.53,995.7c0-.42-.34-.76-.76-.76h-11c-.42,0-.76.34-.76.76h0v252.5c0,.42.34.76.76.76h11c.42,0,.76-.34.76-.76v-252.5ZM1742.17,995.51c0-.28-.23-.51-.51-.51h-11.48c-.28,0-.51.23-.51.51v253.04c0,.28.23.51.51.51h11.48c.28,0,.51-.23.51-.51h0v-253.04ZM72.1,1233.38c0,126.25.01,199.1.03,218.53,0,5.85,2.6,9.92,7.78,12.21,2.66,1.17,6.37,1.15,9.28.96.23-.02.41-.21.41-.44.02-77.12.03-154.21.03-231.26,0-77.06-.01-154.15-.03-231.27,0-.23-.18-.42-.41-.44-2.91-.19-6.62-.21-9.28.96-5.18,2.29-7.77,6.36-7.78,12.21-.02,19.43-.03,92.28-.03,218.54ZM93.53,1002.28v26.18c0,.3.25.55.55.55h97.2c4.47,0,8.09-3.23,8.09-7.22v-12.84c0-3.99-3.62-7.22-8.09-7.22h-97.2c-.3,0-.55.25-.55.55ZM93.42,1098.5c0,7.29.05,28.93.15,64.92,0,.21.17.38.38.38h8.04c.27,0,.49-.22.49-.49,0-.04,0-.09-.02-.13-1.33-4.8-2.23-8.56-2.7-11.29-2.81-16.45-4.22-34.25-4.23-53.39,0-19.14,1.39-36.94,4.18-53.39.47-2.73,1.36-6.5,2.69-11.3.07-.26-.08-.53-.34-.6-.04-.01-.08-.02-.13-.02h-8.04c-.21.01-.38.18-.38.39h0c-.07,35.99-.1,57.63-.09,64.92ZM129.61,1098.48c0-15.13-1.01-30.38-3.05-45.76-.85-6.39-2.18-12.67-3.97-18.82-.11-.38-.45-.64-.84-.64-.19,0-2.56,0-7.1-.01h-7.1c-.39,0-.73.26-.84.64-1.8,6.15-3.13,12.43-3.98,18.82-2.06,15.38-3.09,30.63-3.1,45.76,0,15.12,1.02,30.37,3.06,45.75.85,6.39,2.18,12.67,3.97,18.83.11.37.45.63.84.63.19,0,2.55,0,7.1.01h7.1c.39,0,.73-.26.84-.64,1.8-6.15,3.13-12.43,3.98-18.82,2.06-15.38,3.09-30.63,3.09-45.75ZM133.67,1098.48c0,16.79-.97,32.05-2.92,45.78-.94,6.61-2.29,12.95-4.06,19.02-.07.22.06.46.29.52.04.01.08.02.12.02,36.67-.06,57.85-.07,63.54-.03,3.56.03,6.05-1.15,7.47-3.53.82-1.38,1.25-4.22,1.28-8.52.03-4.32.05-22.07.05-53.26,0-31.19-.03-48.94-.06-53.26-.03-4.3-.45-7.14-1.28-8.52-1.41-2.38-3.9-3.56-7.47-3.53-5.68.04-26.86.03-63.53-.02-.24,0-.43.19-.43.43,0,.04,0,.08.02.11,1.77,6.07,3.12,12.41,4.05,19.02,1.95,13.72,2.93,28.98,2.93,45.77ZM1555.46,1122.31c0,37.59,0,56.83.01,57.72.01,5.31.53,8.98,1.54,11.01,2.45,4.95,6.78,7.43,12.97,7.43,80.94,0,126.97-.01,138.08-.06.38,0,.68-.3.68-.68,0-1.39,0-26.54,0-75.43,0-48.89,0-74.04-.01-75.43,0-.37-.31-.67-.68-.67-11.11-.05-57.14-.06-138.08-.05-6.19,0-10.52,2.48-12.97,7.43-1.01,2.03-1.53,5.7-1.54,11.01v57.72ZM93.43,1233.34c0,7.29.05,28.93.14,64.92,0,.21.17.38.38.38h8.04c.27,0,.49-.22.49-.49,0-.04,0-.09-.02-.13-1.33-4.8-2.23-8.56-2.7-11.29-2.81-16.45-4.21-34.25-4.22-53.39,0-19.14,1.4-36.93,4.2-53.38.46-2.73,1.36-6.5,2.69-11.3.07-.26-.08-.53-.34-.6-.04-.01-.08-.02-.13-.02h-8.04c-.21,0-.37.17-.38.38-.07,35.99-.11,57.63-.11,64.92ZM99.58,1233.36c-.02,15.14.99,30.41,3.03,45.81.85,6.4,2.17,12.68,3.96,18.85.11.38.45.64.84.64.19,0,2.56,0,7.11.01h7.1c.39,0,.73-.26.84-.63,1.81-6.17,3.14-12.45,4.01-18.85,2.07-15.39,3.11-30.66,3.12-45.8.02-15.14-.99-30.41-3.03-45.81-.85-6.4-2.17-12.68-3.96-18.85-.11-.38-.45-.64-.84-.64-.19,0-2.56,0-7.11-.01-4.55,0-6.91,0-7.1,0-.39,0-.73.26-.84.63-1.81,6.17-3.14,12.45-4.01,18.84-2.07,15.4-3.11,30.67-3.12,45.81ZM133.6,1233.3c0,16.81-.99,32.09-2.96,45.83-.94,6.63-2.3,12.98-4.07,19.05-.07.22.06.46.29.52.04.01.08.02.12.02,36.73-.03,57.93-.03,63.62.01,3.57.03,6.06-1.15,7.48-3.53.83-1.38,1.26-4.22,1.29-8.53.03-4.33.06-22.1.08-53.33.02-31.23.01-49-.02-53.33-.03-4.31-.46-7.15-1.28-8.53-1.41-2.39-3.91-3.57-7.48-3.55-5.69.04-26.89.02-63.61-.05-.24,0-.43.19-.43.43,0,.04,0,.08.02.11,1.76,6.07,3.11,12.42,4.05,19.05,1.94,13.74,2.91,29.02,2.9,45.83ZM1741.65,1615.07c.33,0,.6-.27.6-.6h0v-360.63c0-.33-.27-.6-.6-.6h-27.95c-.33,0-.6.27-.6.6h0v327.41c0,.33-.27.6-.6.6h-211.48c-.33,0-.6.27-.6.6h0v32.02c0,.33.27.6.6.6h240.63ZM93.41,1367.9c-.01,7.3,0,28.97.01,65.02,0,.21.17.38.38.38h0l8.05.02c.27,0,.49-.22.49-.49,0-.04,0-.09-.02-.13-1.33-4.81-2.22-8.59-2.68-11.32-2.77-16.49-4.14-34.31-4.11-53.48.03-19.17,1.47-36.99,4.31-53.46.47-2.73,1.37-6.5,2.72-11.31.07-.26-.08-.53-.34-.6-.04-.01-.08-.02-.13-.02h-8.06c-.2,0-.36.16-.37.36-.15,36.05-.24,57.73-.25,65.03ZM99.57,1368.24c-.02,15.15.99,30.44,3.03,45.85.85,6.4,2.17,12.69,3.96,18.86.11.37.45.63.84.64.19,0,2.57,0,7.12,0s6.92,0,7.11,0c.39,0,.73-.26.84-.63,1.81-6.17,3.14-12.45,4-18.86,2.07-15.41,3.12-30.68,3.13-45.83.02-15.15-.99-30.44-3.03-45.85-.85-6.41-2.17-12.69-3.96-18.86-.11-.37-.45-.63-.84-.64-.19,0-2.56,0-7.11-.01-4.55,0-6.92-.01-7.11-.01-.4,0-.74.26-.85.64-1.81,6.17-3.14,12.45-4,18.86-2.07,15.41-3.12,30.68-3.13,45.83ZM133.62,1368.1c.02,16.81-.94,32.08-2.87,45.81-.93,6.62-2.27,12.97-4.03,19.04-.07.22.07.46.29.52.04.01.08.02.12.02,36.7-.11,57.89-.14,63.58-.11,3.57.02,6.06-1.16,7.47-3.55.82-1.38,1.24-4.22,1.27-8.53.03-4.32.02-22.08-.02-53.29-.05-31.21-.09-48.97-.13-53.3-.04-4.3-.47-7.14-1.29-8.52-1.42-2.38-3.91-3.56-7.48-3.53-5.69.05-26.88.08-63.58.07-.24,0-.43.19-.43.43,0,.04,0,.08.02.11,1.78,6.07,3.14,12.41,4.08,19.03,1.97,13.73,2.97,28.99,3,45.8ZM1144.03,1424.32c0-.33-.26-.59-.59-.59h-4c-.33,0-.59.26-.59.59v152.98c0,.33.26.59.59.59h4c.33,0,.59-.26.59-.59v-152.98ZM93.49,1437.98l.04,26.8c0,.25.21.46.46.46l97.74-.17c4.24,0,7.67-3.01,7.67-6.71l-.02-14.32c0-3.7-3.45-6.7-7.69-6.69h0l-97.74.17c-.25,0-.46.21-.46.46ZM911.7,1558.25c0-.28-.22-.5-.5-.5h-147.84c-.28,0-.5.22-.5.5v4.02c0,.28.22.5.5.5h147.84c.28,0,.5-.22.5-.5v-4.02ZM1134.09,1615.75c.38,0,.69-.31.69-.69v-32.36c0-.38-.31-.69-.69-.69h-191.94c-.38,0-.69-.31-.69-.69v-13.65c0-.38-.31-.69-.69-.69h-23.99c-.38,0-.69.31-.69.69h0v157.57c0,.38-.31.69-.69.69h-220.45c-.38,0-.69.31-.69.69v28.29c0,.38.31.69.69.69h249.42c.38,0,.69-.31.69-.69v-138.47c0-.38.31-.69.69-.69h188.34ZM1485.38,1582.35c0-.29-.24-.53-.53-.53h-185.48c-.29,0-.53.24-.53.53v32.22c0,.29.24.53.53.53h185.48c.29,0,.53-.24.53-.53v-32.22ZM1496.25,1582.31c0-.3-.25-.55-.55-.55h-5.66c-.3,0-.55.25-.55.55v32.28c0,.3.25.55.55.55h5.66c.3,0,.55-.25.55-.55v-32.28ZM690.27,1726.43c0-.25-.21-.46-.46-.46H253.45c-.25,0-.46.21-.46.46v11.68c0,.25.21.46.46.46h436.36c.25,0,.46-.21.46-.46h0v-11.68ZM690.3,1743.15c0-.23-.18-.41-.41-.41H253.41c-.23,0-.41.18-.41.41h0v12.04c0,.23.18.41.41.41h436.48c.23,0,.41-.18.41-.41v-12.04Z"/>
  <path d="M1488.51,169.78c-2.1-1.07-3.35-1.71-4.12-4.32-2.48-8.43,11.14-9.56,16.81-10.34,12.61-1.73,22.95-2.8,31-3.2,5.61-.28,9.06,4.6,6.95,9.87-.13.32.02.69.34.82.07.03.15.05.23.05,14.15.35,17.97,10.59,20.15,22.33,2.78,14.97,2.76,30.29-.07,45.94-.97,5.39-2.91,10.22-5.8,14.51-2.99,4.43-9.02,5.95-14.73,6.32-.28.01-.5.26-.48.54,0,.02,0,.03,0,.05.04.26.14.66.3,1.2.91,3.09-.76,6.3-3.25,7.61-1.34.7-3.8.89-7.39.57-13.88-1.24-26.48-2.82-37.8-4.74-7.32-1.24-9.04-10.42-1.36-12.99.16-.06.24-.24.19-.4-.02-.06-.06-.11-.11-.14l-4.26-3c-.28-.2-.68-.14-.9.14-1.74,2.27-3.81,5.22-6.2,8.87-1.71,2.62-5.9,4.8-9.09,3.89-4.79-1.37-7.36-8.25-8.68-12.76-7.03-23.94-7.17-51.11,2.44-74.41.75-1.82,2.81-4.72,4.83-5.53,7.92-3.15,13.28,7.34,16.16,12.85.19.37.64.51,1.01.32.06-.03.11-.07.15-.11l3.75-3.38c.14-.12.16-.34.03-.48-.03-.03-.06-.06-.1-.08ZM1512.45,163.83c13.71-1.63,20.57-2.44,20.6-2.45,2.32-.28,3.27-1.47,2.86-3.56-.2-1.04-1.13-1.79-2.2-1.77-6.51.13-13.84.68-21.99,1.65-8.15.97-15.41,2.16-21.77,3.56-1.04.23-1.77,1.17-1.73,2.23.09,2.13,1.3,3.06,3.62,2.79.03,0,6.9-.82,20.61-2.45ZM1459.31,206.66c-.03,9.87,1.15,19.38,3.52,28.55,1.18,4.56,2.73,11.06,6.14,13.99.5.43,1.26.37,1.69-.13.1-.12.17-.25.22-.39,0-.02.01-.11.01-.27,0-.21-.04-.41-.12-.59-5.84-13.04-8.5-26.77-8.46-41.15.04-14.38,2.77-28.09,8.68-41.11.08-.18.13-.38.13-.58,0-.16,0-.25-.01-.27-.2-.62-.88-.96-1.51-.75-.15.05-.28.12-.4.22-3.42,2.91-5.01,9.4-6.22,13.95-2.42,9.15-3.64,18.66-3.67,28.53ZM1483.79,207.14c0,7.74.35,14.52,1.03,20.33,1.08,9.19,3.4,13.16,12.65,14.96,7.49,1.46,16.14,2.77,25.95,3.93,5.94.71,11.77,1.54,17.5,1.17,7.51-.5,11.62-5.02,13.55-12.11,2.54-9.35,3.43-18.53,3.42-28.34,0-9.8-.91-18.98-3.47-28.33-1.94-7.08-6.05-11.6-13.57-12.08-5.73-.37-11.55.47-17.49,1.19-9.81,1.18-18.46,2.51-25.95,3.98-9.24,1.81-11.56,5.78-12.62,14.97-.67,5.82-1.01,12.6-1,20.33ZM1474.37,167.64c-10.85,26.34-10.83,52.74.08,79.2.06.13.21.19.34.13.04-.02.08-.05.1-.08l7.12-10.12c.22-.31.29-.7.2-1.08-.9-3.69-1.51-7.59-1.84-11.71-1.02-12.87-.95-25.54.22-38,.06-.65.23-1.64.5-2.98.37-1.86.6-2.86.68-3.01.3-.55.29-1.22-.03-1.77l-6.15-10.66c-.19-.33-.6-.44-.93-.25-.13.08-.23.19-.29.33ZM1512.22,249.96c-13.51-1.58-20.28-2.37-20.31-2.38-2.29-.26-3.47.66-3.56,2.76-.04,1.05.68,1.98,1.71,2.2,6.27,1.37,13.42,2.52,21.46,3.46,8.03.94,15.26,1.47,21.68,1.59,1.05.02,1.96-.72,2.16-1.75.4-2.06-.54-3.23-2.83-3.51-.03,0-6.8-.79-20.31-2.37Z"/>
  <path d="M416.62,236.55c.39-.14.86-.33,1.41-.58,2.97-1.36,6.81.6,8.02,2.99.58,1.15.77,3.67.57,7.54-.74,14.51-2.31,28.22-4.7,41.13-.45,2.43-1.71,4.05-3.79,4.88-3.91,1.55-6.95.28-9.11-3.81-.16-.3-.52-.41-.82-.26-.11.06-.19.14-.25.25l-2.41,4.5c-.18.33-.06.73.26.91,3.66,2.05,5.84,3.24,6.54,3.59,2.16,1.06,3.54,2.11,4.15,3.16,2.75,4.76,3.28,9.14-2.1,12.33-2.44,1.45-5.15,2.62-8.13,3.5-19.52,5.75-39.37,6.43-59.55,2.04-6.55-1.42-23.28-4.61-20-14.3,1.06-3.13,2.18-4.72,4.99-6.38,2.86-1.69,5.2-3.03,7.02-4.04.27-.15.36-.49.22-.76l-2.94-5.46c-.08-.14-.25-.19-.39-.11-.06.04-.11.09-.14.16-.91,2.9-2.41,4.57-4.48,5.01-3.12.67-5.52-.14-7.2-2.45-.66-.91-1.23-2.75-1.71-5.51-2.14-12.37-3.61-26.27-4.42-41.72-.31-6.06,4.98-9.57,10.13-6.56.25.15.58.07.73-.18.04-.07.07-.15.07-.24.82-12.39,10.81-17.08,21.8-18.63,15.65-2.21,31.02-2.03,46.11.53,10.35,1.76,18.49,6.32,19.27,17.9.03.36.33.63.69.6.06,0,.11-.02.16-.03ZM372.21,294.15c6.21,0,12.55-.33,19.01-.99,4-.41,7.08-1,9.25-1.79,6.45-2.33,8.09-17.99,8.81-24.45,1.67-14.87,2.56-23.63,2.65-26.26.41-11.44-4.55-16.59-15.45-18.6-7.41-1.37-15.48-2.05-24.23-2.06-8.75,0-16.82.67-24.23,2.03-10.9,2.01-15.87,7.15-15.47,18.59.09,2.63.97,11.39,2.62,26.26.72,6.46,2.34,22.13,8.79,24.46,2.17.79,5.25,1.39,9.25,1.8,6.46.67,12.79,1,19,1.01ZM414.82,264.03c-1.52,14.24-2.28,21.37-2.29,21.4-.25,2.41.73,3.65,2.94,3.72,1.11.04,2.08-.73,2.3-1.82,1.37-6.61,2.51-14.15,3.41-22.62.91-8.47,1.39-16.08,1.44-22.83,0-1.11-.78-2.07-1.87-2.26-2.17-.4-3.38.61-3.65,3.02,0,.03-.77,7.16-2.28,21.39ZM329.55,264.06c-1.41-14.25-2.11-21.38-2.12-21.41-.25-2.41-1.46-3.43-3.63-3.05-1.09.19-1.88,1.14-1.88,2.25,0,6.75.42,14.36,1.26,22.83.84,8.47,1.92,16.02,3.24,22.64.21,1.09,1.18,1.86,2.28,1.84,2.21-.05,3.2-1.29,2.97-3.7,0-.03-.71-7.16-2.12-21.4ZM372.34,310.47c13.96.02,26.39-2.53,39.06-7.95.2-.08.3-.31.21-.51-.03-.08-.09-.15-.17-.2l-10.33-5.93c-.22-.13-.49-.17-.75-.1-1.05.28-2.66.59-4.83.92-6.02.92-13.74,1.37-23.17,1.35-9.43-.01-17.15-.49-23.17-1.43-2.17-.34-3.78-.65-4.83-.93-.26-.07-.53-.03-.75.1l-10.35,5.89c-.19.11-.26.35-.15.54.04.08.11.14.19.17,12.65,5.47,25.08,8.05,39.04,8.08ZM372.33,317.52c9.71,0,19.08-1.17,28.09-3.52,4.48-1.17,10.88-2.71,13.76-6.07.42-.5.36-1.24-.13-1.66-.12-.1-.25-.17-.39-.22-.02,0-.11-.01-.27-.01-.2,0-.39.04-.57.12-12.83,5.78-26.34,8.42-40.49,8.41-14.15,0-27.66-2.66-40.48-8.46-.18-.08-.38-.12-.58-.12-.15,0-.24,0-.26,0-.61.2-.95.87-.74,1.48.05.15.12.28.22.4,2.87,3.37,9.27,4.91,13.75,6.09,9.01,2.36,18.38,3.54,28.09,3.55Z"/>
  <path d="M531.58,216.06c6.59,0,13.4.41,20.41,1.24,11.35,1.36,22.2,5.55,23.13,18.77.02.28.26.49.54.47.07,0,.14-.02.2-.05,4.96-2.51,10.2.34,10.02,6.2-.44,14.41-1.86,28.81-4.25,43.21-.58,3.52-2.08,6.51-5.71,7.12-3.38.56-5.88-1-7.5-4.68-.1-.24-.38-.35-.62-.25-.1.04-.18.12-.23.22l-2.57,4.78c-.18.33-.06.75.27.94,6,3.35,10.46,4.77,12.14,9.9,2.61,8.01-6.04,11.11-12,12.85-10.97,3.19-22.2,4.79-33.69,4.81-11.49.01-22.73-1.56-33.7-4.72-5.97-1.72-14.62-4.8-12.04-12.82,1.67-5.13,6.13-6.56,12.12-9.93.33-.19.45-.61.26-.94l-2.58-4.77c-.12-.23-.4-.32-.63-.2-.1.05-.17.13-.22.23-1.61,3.69-4.1,5.25-7.49,4.7-3.63-.6-5.14-3.59-5.73-7.11-2.43-14.39-3.88-28.79-4.36-43.19-.2-5.86,5.03-8.73,10-6.23.25.13.56.03.69-.22.03-.06.05-.13.05-.2.89-13.23,11.73-17.44,23.08-18.83,7.01-.86,13.82-1.29,20.41-1.3ZM531.56,294.15c6.21,0,12.54-.33,19-.99,4-.41,7.08-1,9.25-1.79,6.45-2.33,8.09-17.98,8.81-24.44,1.67-14.87,2.56-23.63,2.65-26.26.41-11.43-4.55-16.58-15.45-18.6-7.41-1.36-15.48-2.04-24.22-2.05-8.75,0-16.82.67-24.23,2.03-10.9,2-15.86,7.15-15.46,18.59.09,2.63.96,11.38,2.62,26.25.71,6.46,2.34,22.12,8.78,24.45,2.17.79,5.25,1.39,9.25,1.8,6.46.67,12.79,1,19,1.01ZM574.14,263.99c-1.4,14.24-2.1,21.38-2.11,21.41-.23,2.41.76,3.64,2.97,3.69,1.1.03,2.06-.75,2.28-1.83,1.32-6.62,2.4-14.17,3.23-22.64.84-8.47,1.26-16.08,1.25-22.83,0-1.11-.79-2.05-1.88-2.24-2.17-.39-3.38.63-3.63,3.04,0,.03-.7,7.17-2.11,21.4ZM489.1,264.06c-1.46-14.24-2.19-21.37-2.2-21.4-.25-2.41-1.47-3.42-3.64-3.03-1.08.19-1.87,1.14-1.87,2.25.03,6.75.47,14.36,1.34,22.83.87,8.47,1.98,16.02,3.33,22.63.22,1.09,1.19,1.86,2.29,1.83,2.21-.06,3.19-1.3,2.95-3.71,0-.03-.73-7.16-2.2-21.4ZM531.77,310.52c13.96,0,26.39-2.57,39.04-8.02.2-.08.3-.31.21-.51-.03-.08-.1-.15-.17-.2l-10.34-5.91c-.22-.13-.49-.17-.75-.1-1.05.28-2.66.59-4.83.93-6.01.93-13.73,1.39-23.16,1.4-9.43,0-17.15-.46-23.16-1.39-2.17-.33-3.78-.64-4.83-.92-.26-.07-.53-.03-.75.1l-10.34,5.91c-.19.11-.26.35-.15.54.04.08.11.14.19.17,12.66,5.44,25.09,8,39.04,8ZM531.78,317.56c9.71,0,19.08-1.18,28.09-3.55,4.48-1.17,10.87-2.72,13.75-6.08.42-.5.36-1.24-.13-1.66-.12-.1-.25-.17-.39-.22-.02,0-.11-.01-.27-.01-.2,0-.39.04-.57.12-12.82,5.79-26.33,8.45-40.48,8.45-14.15,0-27.66-2.63-40.48-8.41-.18-.08-.38-.12-.58-.12-.15,0-.24,0-.26,0-.61.2-.95.87-.74,1.48.05.15.12.28.22.4,2.88,3.36,9.27,4.9,13.75,6.07,9.02,2.35,18.38,3.53,28.09,3.52Z"/>
  <path d="M1090.87,1094.09c0,1.15-.93,2.08-2.08,2.08h-116.1c-1.15,0-2.08-.93-2.08-2.08v-353.42c0-1.15.93-2.08,2.08-2.08h116.1c1.15,0,2.08.93,2.08,2.08h0v353.42ZM1086.9,743.05c0-.34-.27-.61-.61-.61h-110.7c-.34,0-.61.27-.61.61v348.42c0,.34.27.61.61.61h110.7c.34,0,.61-.27.61-.61v-348.42Z"/>
  <path d="M1685.42,976.33c1.55,2.85,2.65,7.07,3.15,10.2,2.35,14.75,3.8,29.68,4.36,44.79.03.98-.73,1.8-1.71,1.83-.04,0-.09,0-.13,0h-.08c-1.08-.06-1.94-.91-1.99-1.99-.57-11.87-1.75-24.45-3.52-37.75-.61-4.56-1.56-9.07-2.86-13.52-.2-.7-.72-1.27-1.41-1.54-15.01-5.91-29.94-7.27-47.5-6.19-9.7.59-18.83,2.64-27.4,6.13-3,1.22-3.6,4.6-4.48,8.28-.82,3.48-1.46,7.43-1.93,11.84-1.19,11.21-2.02,22.18-2.51,32.93-.04,1.05-.93,1.87-1.99,1.83,0,0,0,0,0,0h-.2c-1.01-.04-1.8-.89-1.76-1.9.57-14.19,1.72-27.73,3.44-40.62.75-5.65,2.28-10.41,4.57-14.28.18-.3.15-.69-.09-.96-.73-.83-2.16-1.9-3.07-3.07-7.08-9.12-.37-14.87,8.39-18.05,15.64-5.66,31.65-7.03,48.73-5.57,9.67.83,18.61,2.96,26.82,6.39,6.01,2.51,11.33,6.81,8.43,14.1-.98,2.47-2.93,4.39-5.07,6.12-.29.24-.37.66-.19,1ZM1643.43,967.97c13.02,0,25.21,1.88,36.56,5.65.4.13.83.09,1.19-.13,2.96-1.81,6.45-4.81,6.08-8.38-.35-3.43-4.53-5.57-7.55-6.74-11.54-4.46-23.92-6.33-36.29-6.32-12.38.01-24.75,1.88-36.29,6.36-3.02,1.17-7.19,3.31-7.54,6.74-.37,3.57,3.13,6.57,6.09,8.38.36.22.79.26,1.19.13,11.35-3.79,23.54-5.68,36.56-5.69Z"/>
  <path d="M596.46,1006.26c12.88,12.55,25.75,25.16,38.6,37.81,12.05,11.87,11.95,29.54.25,41.7-20.43,21.24-46.04,47.63-76.81,79.16-3.94,4.04-6.98,6.41-9.11,7.12-4.13,1.37-8.11.16-11.95-3.61-17.09-16.8-33.99-33.35-50.7-49.64-16.71-16.3-33.68-32.78-50.91-49.43-3.87-3.74-5.17-7.69-3.91-11.85.65-2.15,2.95-5.25,6.89-9.29,30.74-31.56,56.47-57.82,77.19-78.79,11.86-12.01,29.52-12.55,41.69-.8,12.97,12.53,25.9,25.07,38.77,37.62ZM531.91,1157.35c1.25,1.28,3.64,3.71,7.18,7.28,2.23,2.25,4.13,3.5,5.72,3.75,2.61.42,4.74-.24,6.39-1.98,12.83-13.52,21.7-22.81,26.62-27.88,34.11-35.11,52.42-54.03,54.95-56.78,7.07-7.68,9.24-18.47,4.55-27.76-1.19-2.36-4.35-6.04-9.46-11.05-28.92-28.29-53.39-52.06-73.42-71.29-7.85-7.54-18.8-9.1-28.37-4.52-2.85,1.36-7.08,4.98-12.69,10.86-23.48,24.61-46.78,47.92-73.82,75.94-1.76,1.83-2.73,3.05-2.9,3.66-1.29,4.54.27,6.63,4.2,10.19,1.69,1.53,3.8,3.56,6.33,6.1.43.43,1.12.43,1.55,0,0,0,0,0,.01-.01,32.01-32.94,60.54-62.31,85.59-88.1,3.48-3.59,5.98-5.68,7.5-6.27,3.28-1.27,6.55-1.43,9.82-.48,1.78.52,4.34,2.4,7.68,5.65,29.84,29.03,43.88,42.44,60.42,59.8,5.98,6.28,5.6,15.71-.24,22.04-5.49,5.96-10.44,10.2-15.17,15.12-21.18,22.06-45.33,46.95-72.44,74.66-.29.3-.29.78,0,1.07ZM611.9,1067.25c.26.25.67.25.92,0,.01-.01.02-.02.03-.03,4.24-4.96,8.51-8.28,6.34-15.39-.5-1.63-2.11-3.83-4.83-6.62-17.89-18.34-34.5-34.53-59.49-58.92-4.09-3.99-8.32-4.62-12.69-1.88-2.1,1.32-4.35,4.14-6.63,6.36-.33.32-.34.85-.02,1.18,0,0,0,0,0,0l76.36,75.3ZM567.6,1030.27c.21-.06.34-.28.28-.49-.02-.07-.05-.13-.1-.18l-34.05-33.46c-.16-.16-.41-.15-.57,0-.05.05-.09.12-.1.19l-10.81,45.06c-.05.21.08.43.3.48.06.02.13.01.19,0l44.86-11.6ZM474.67,1053.74c.02.12.14.19.26.17l41.88-10.4c.45-.11.81-.47.92-.93l9.92-42.86c.02-.08,0-.17-.06-.24-.14-.17-.28-.18-.43-.02-17.47,18.31-34.93,36.26-52.39,53.85-.09.11-.13.25-.1.43ZM510.81,1092.6c-.03.16.07.32.24.35.04,0,.08,0,.12,0l45.86-11.45c.11-.03.19-.11.22-.22l10.26-45.96c.03-.16-.07-.32-.24-.35-.04,0-.08,0-.12,0l-45.85,11.45c-.11.03-.19.11-.22.22l-10.27,45.96ZM607.06,1069.1c.18-.04.29-.23.25-.41-.01-.06-.05-.12-.09-.16l-34.32-33.85c-.13-.13-.35-.13-.48,0-.04.05-.08.1-.09.17l-10.43,44.91c-.04.18.08.36.26.4.05,0,.1,0,.15,0l44.75-11.06ZM516.12,1048.01s-.14-.05-.35-.08c-.03,0-.05,0-.08,0l-43.21,10.96c-.41.1-.72.43-.8.84l-6.08,31.03c-.11.59.07,1.2.5,1.62l9.27,9.09c.28.27.67.38,1.04.28l28.63-7.16c.49-.13.88-.52.99-1.01l10.28-45c.05-.21-.02-.43-.19-.57ZM451.05,1077.6c-.12.12-.12.32,0,.44,0,0,0,0,0,0l10.28,10.14c.12.12.32.11.44,0,.04-.04.07-.1.08-.16l5.08-25.72c.02-.17-.09-.33-.26-.35-.09-.01-.19.02-.26.08l-15.36,15.58ZM605.15,1074.19c-.02-.12-.14-.2-.26-.18,0,0,0,0,0,0l-43.44,10.85c-.47.12-.84.49-.95.97l-10.23,44.48c-.02.08,0,.17.06.24.15.18.3.19.45.02,18.09-19.01,36.18-37.66,54.27-55.94.1-.11.14-.25.11-.44ZM545.54,1131.43c.11-.02.19-.1.22-.21l9.95-44.51s0-.08-.01-.12v-.08c-.05-.15-.2-.24-.35-.2l-46.07,11.5c-.1.02-.19.11-.21.21l-6.73,30.12c-.02.09.01.19.08.26l10.15,10.02c.07.07.17.1.26.08l32.71-7.07ZM479.34,1105.1c-.19.05-.31.24-.26.44.02.06.05.12.09.16l19.08,18.76c.14.14.37.14.51,0,.05-.05.09-.11.1-.19l5.56-24.75c.04-.19-.09-.38-.28-.42-.05-.01-.11,0-.16,0l-24.64,5.99ZM545.03,1136.9c.23-.22.23-.59,0-.82-.14-.14-.34-.2-.54-.16l-27.15,5.87c-.31.07-.52.37-.45.69.02.11.08.21.16.29l10.84,10.68c.23.23.59.23.82,0l16.31-16.55Z"/>
  <path d="M415.33,1352.25c0,.97-.78,1.75-1.75,1.75h-146.68c-.97,0-1.75-.78-1.75-1.75v-290.68c0-.97.78-1.75,1.75-1.75h146.68c.97,0,1.75.78,1.75,1.75v290.68ZM411.33,1064.41c0-.28-.23-.51-.51-.51h-141.14c-.28,0-.51.23-.51.51h0v285.1c0,.28.23.51.51.51h141.14c.28,0,.51-.23.51-.51h0v-285.1Z"/>
  <path d="M405.15,1342.4c0,.82-.67,1.49-1.49,1.49h-126.74c-.82,0-1.49-.67-1.49-1.49v-270.82c0-.82.67-1.49,1.49-1.49h126.74c.82,0,1.49.67,1.49,1.49v270.82ZM279.37,1181.44c0,.07.04.13.11.13.05,0,.1-.02.12-.07l57.53-106.96c.09-.17.03-.38-.14-.47-.05-.03-.1-.04-.16-.04h-56.76c-.39,0-.7.31-.7.7h0v106.71ZM401.06,1181.2l.28-106.36c0-.39-.31-.7-.7-.7h0l-56.58-.15c-.19,0-.34.15-.34.34,0,.06.01.11.04.17l57.07,106.76c.03.06.1.09.16.06.05-.02.08-.07.07-.12ZM339.91,1120.81c.11.2.36.28.57.17.07-.04.13-.1.17-.17l11.48-21.33c.07-.12.07-.28,0-.4l-11.37-21.09c-.11-.2-.36-.28-.57-.17-.07.04-.13.1-.17.17l-11.47,21.33c-.07.12-.07.28,0,.4l11.36,21.09ZM279.35,1206.9c0,9.15.01,14.21.03,15.16.02.68.2,1.35.53,1.96l45.96,85.32c.09.18.31.25.48.16.07-.03.12-.09.16-.16l10.83-20.13c.36-.66.35-1.46-.01-2.12-12.65-23.23-26.82-49.56-42.52-78.98-.25-.47-.37-.87-.37-1.21s.12-.73.37-1.2c15.7-29.42,29.87-55.75,42.52-78.98.36-.66.37-1.46.01-2.12l-10.83-20.13c-.09-.18-.31-.25-.48-.16-.07.03-.12.09-.16.16l-45.96,85.32c-.33.6-.51,1.27-.53,1.95-.02.96-.03,6.01-.03,15.16ZM401.22,1206.75c0-9.12-.02-14.15-.05-15.1-.01-.68-.19-1.35-.52-1.96l-45.84-85.01c-.1-.17-.32-.24-.49-.14-.06.03-.11.08-.14.14l-10.79,20.07c-.35.66-.35,1.45.01,2.11,12.61,23.15,26.75,49.38,42.4,78.7.25.47.37.86.37,1.19s-.12.74-.37,1.21c-15.63,29.33-29.75,55.57-42.34,78.73-.36.66-.36,1.45-.01,2.11l10.8,20.06c.1.17.32.24.49.14.06-.03.11-.08.14-.14l45.78-85.05c.33-.6.5-1.27.52-1.95.03-.95.04-5.99.04-15.11ZM340.08,1282.99c.09.15.28.21.43.13.05-.03.1-.07.13-.13l40.89-76.02c.05-.09.05-.21,0-.3l-40.88-75.88c-.09-.15-.28-.21-.43-.13-.05.03-.1.07-.13.13l-40.89,76.02c-.05.09-.05.21,0,.3l40.88,75.88ZM279.39,1232.08l-.06,106.79c0,.39.31.7.7.7h0l56.81.03c.19,0,.34-.15.34-.34,0-.06-.01-.11-.04-.17l-57.52-107.07c-.03-.06-.1-.09-.16-.06-.05.02-.08.07-.07.12ZM401.04,1232.68c0-.07-.04-.13-.11-.13-.05,0-.1.02-.12.07l-57,106.5c-.09.17-.03.38.14.47.05.02.1.04.15.04l56.46-.11c.38,0,.69-.32.69-.7l-.21-106.14ZM340.04,1335.52c.11.21.37.29.58.18.08-.04.14-.1.18-.18l11.36-21.13c.07-.13.07-.27,0-.4l-11.37-21.12c-.11-.21-.37-.29-.58-.18-.08.04-.14.1-.18.18l-11.37,21.13c-.07.13-.07.27,0,.4l11.38,21.12Z"/>
  <path d="M1090.84,1337.97c0,1.1-.89,1.99-1.99,1.99h-116.22c-1.1,0-1.99-.89-1.99-1.99v-228.88c0-1.1.89-1.99,1.99-1.99h116.22c1.1,0,1.99.89,1.99,1.99v228.88ZM1086.86,1111.81c0-.35-.29-.64-.64-.64h-110.58c-.35,0-.64.29-.64.64h0v223.36c0,.35.29.64.64.64h110.58c.35,0,.64-.29.64-.64h0v-223.36Z"/>
  <path d="M1601.15,1269.95c-1.97-5.2-3.13-8.88-3.46-11.05-2.25-14.94-3.67-30.29-4.28-46.06-.03-.95.71-1.76,1.67-1.79.13,0,.26,0,.39.03l.53.11c.8.16,1.4.85,1.43,1.67.53,13.7,1.63,26.88,3.3,39.55.62,4.75,1.6,9.2,2.93,13.34.27.83.9,1.49,1.71,1.79,23.65,8.72,52.47,9.44,75.86.04.41-.17.74-.49.92-.89.63-1.41,1.08-2.92,1.35-4.51,2.79-16.17,4.62-32.53,5.47-49.1.06-1.09.98-1.92,2.07-1.87.03,0,.06,0,.09,0h.1c1.14.12,1.98,1.11,1.92,2.26-.83,13.81-2.3,28.22-4.4,43.21-.62,4.45-1.64,8.86-3.07,13.22-.15.49.03,1.03.45,1.32,6.09,4.17,7.91,12.47,1.21,17.15-6.62,4.63-15.02,6.48-23.58,7.92-16.19,2.71-32.22,2.18-48.07-1.61-5.96-1.42-16.12-4.59-19.05-10.18-1.95-3.75-1.62-7.28,1-10.6.82-1.03,2.43-2.07,3.33-3.04.23-.25.3-.61.18-.92ZM1643.46,1278.1c-13.03-.03-25.23-1.94-36.59-5.74-.4-.13-.83-.09-1.19.13-2.96,1.8-6.46,4.8-6.1,8.37.34,3.44,4.52,5.59,7.54,6.76,11.55,4.5,23.93,6.39,36.32,6.41,12.38.02,24.77-1.83,36.34-6.29,3.02-1.16,7.2-3.3,7.56-6.73.37-3.58-3.12-6.58-6.08-8.4-.36-.22-.79-.26-1.19-.13-11.37,3.77-23.58,5.64-36.61,5.62Z"/>
  <path d="M432.97,1337.61c-1.82-4.16-1.24-9.01,2.05-12.39,30.39-31.3,70.03-70.2,103.88-104.86,5.08-5.22,11.77-4.74,16.7.38,3.11,3.23,5.69,6.02,8.06,8.42,35.41,36.03,58.8,59.74,70.17,71.12,3.56,3.55,6.01,6.75,7.36,9.59,5.44,11.42,3.33,24.13-5.47,33.31-6.14,6.41-32.04,32.65-77.7,78.71-11.98,12.09-29.69,11.92-41.57.03-24.92-24.95-51.29-51.27-79.1-78.97-2.43-2.43-3.89-4.21-4.38-5.34ZM532.76,1233.14c-.02.17.04.34.15.47,4.87,5.31,9.23,9.89,13.08,13.72,13.88,13.8,33.24,33.5,67.97,68.82,2.38,2.43,6.88,5.97,7.91,8.13,3.71,7.77,2.8,14.63-2.73,20.57-5.47,5.87-25.22,26.05-59.25,60.54-3.27,3.32-5.74,5.23-7.39,5.74-7.63,2.34-11.95.06-18.13-6.33-15.56-16.1-42.31-42.34-67.96-68.46-5.08-5.17-10.3-10.25-15.65-15.22-2.32-2.16-4.13-1.58-6.2.61-1.62,1.71-3.31,3.4-5.07,5.09-1.57,1.51-2.48,2.66-2.71,3.47-1.24,4.24.05,6.34,3.5,9.76,20.09,19.92,45.49,45.3,76.2,76.13,3.7,3.72,6.55,6.14,8.56,7.27,9.81,5.51,21.97,3.62,29.84-4.37,24.91-25.32,51.49-51.99,73.39-74.45,4.99-5.12,8.1-9.02,9.31-11.7,4.47-9.91,1.86-20.54-5.93-28.47-39.8-40.48-66.05-67.24-78.76-80.29-1.68-1.72-2.82-2.68-3.42-2.88-4.18-1.39-6.4.53-9.66,4.02-3.66,3.92-5.95,6.37-6.88,7.35-.09.09-.14.25-.17.48ZM516.71,1249.05c-.13.13-.13.34,0,.47.05.05.1.08.17.09l25.57,6.11c.18.04.35-.07.4-.25.01-.06.01-.12,0-.17l-2.16-6.56s-.04-.09-.07-.12l-10.96-12.19c-.12-.14-.33-.15-.47-.02,0,0,0,0-.01.01l-12.45,12.63ZM501.36,1264.53c-.15.15-.21.36-.16.56l7.06,28.28c.06.22.23.38.45.43l45.47,10.16c.32.07.63-.13.7-.45.02-.09.02-.18,0-.27l-10.62-42.53c-.06-.22-.23-.38-.45-.43l-30.9-6.91c-.2-.05-.41.02-.55.16l-11,11ZM550.86,1257.8l-3.66-4.1s-.02,0-.03,0c0,0,0,0,0,0h-.02c-.69.63-.48,1.99.47,3.05l.26.28c.95,1.06,2.28,1.42,2.97.81h.01s0-.03,0-.04h0ZM549.53,1261.65c-.24-.05-.48.1-.53.35-.01.07-.01.14,0,.2l10.61,42.5c.04.17.17.29.34.33l46.64,10.43c.24.05.48-.1.53-.35.03-.15-.01-.31-.12-.41l-51.69-51.69c-.06-.06-.14-.1-.22-.12l-5.56-1.24ZM497.95,1268.85c-.06-.24-.29-.38-.53-.33-.08.02-.15.06-.21.12l-17.67,17.73c-.17.17-.17.45,0,.62.06.06.14.1.22.12l23.11,5.37c.24.06.47-.09.53-.33.02-.07.02-.14,0-.2l-5.45-23.1ZM515.32,1343.49c.25.06.5-.1.56-.36.02-.07.02-.14,0-.21l-11.37-45.57c-.04-.17-.18-.3-.35-.34l-28.38-6.34c-.16-.03-.32.02-.43.13l-10.21,10.33c-.11.11-.15.27-.12.42l6,31.05c.03.18.17.33.35.37l43.95,10.52ZM509.81,1298.32c-.26-.06-.53.11-.58.37-.02.07-.02.15,0,.23l11.47,45.94c.04.18.19.32.37.36l46.07,10.29c.26.06.53-.11.58-.37.02-.07.02-.15,0-.23l-11.48-45.94c-.04-.18-.19-.32-.37-.36l-46.06-10.29ZM466.22,1329.91l.06-.25h0s-4.93-23.88-4.93-23.88c-.05-.25-.3-.41-.54-.36-.09.02-.17.06-.23.13l-10.13,10.27c-.16.16-.15.41,0,.57.04.04.08.06.13.08,1.8.77,3.42,1.85,4.85,3.23,1.29,1.24,4.74,4.66,10.33,10.26.12.12.31.11.42,0,.01-.01.03-.03.04-.04ZM572.01,1355.35c.04.18.23.29.41.25.06-.01.11-.05.16-.09l34.48-35.21c.13-.13.13-.35,0-.48-.05-.04-.1-.08-.17-.09l-45.61-10.18c-.18-.04-.37.07-.41.25-.01.05-.01.11,0,.16l11.14,45.39ZM535.36,1400.14c.95.91,2.27,2.23,3.96,3.94,4.3,4.36,10.29,5.33,14.87.81,11.4-11.25,31.4-31.59,60-61,2.31-2.37,3.86-4.54,4.67-6.53,2.76-6.79-.86-11.81-5.77-16.21-.14-.13-.37-.12-.5.02l-77.24,78.33c-.17.18-.17.46,0,.64,0,0,0,0,0,0ZM517.05,1348.23c-.03-.14-.15-.26-.29-.29l-42.19-10.09c-.21-.05-.42.08-.47.29-.03.13,0,.27.11.37l52.86,52.87c.15.15.4.15.55,0,.1-.1.13-.24.1-.38l-10.67-42.77ZM522,1349.21c-.21-.04-.42.09-.46.3-.01.06-.01.11,0,.17l11.3,45.31c.05.21.26.34.47.29.07-.02.14-.05.19-.11l33.97-34.47c.15-.15.15-.4,0-.55-.05-.05-.11-.08-.17-.1l-45.29-10.84Z"/>
</svg>