<?xml version="1.0" encoding="UTF-8"?>
<svg id="Layer_2" data-name="Layer 2" xmlns="http://www.w3.org/2000/svg" viewBox="0 0 114.18 689.6">
  <g id="Layer_2-2" data-name="Layer 2">
    <g id="Layer_1-2" data-name="Layer 1-2">
      <g id="b">
        <g id="c">
          <g>
            <path d="M112.29,34.87H27.48v33.61H1.09V0h111.2v34.87Z"/>
            <path d="M17.9,166.48v-37.07l-16.81-5.5v-36.59l111.2,40.68v40.21L1.09,208.73v-36.75l16.81-5.5ZM75.07,147.95l-30.94-10.05v20.1l30.94-10.05Z"/>
            <path d="M112.29,224.43v39.89l-39.42,17.75,39.42,17.75v39.26l-77.43-39.89H1.09v-34.87h33.77l77.43-39.89Z"/>
            <path d="M112.29,469.28H1.09v-34.87l55.91-36.91H1.09v-34.87h111.2v34.87l-56.86,36.91h56.86v34.87Z"/>
            <path d="M84.49,574.81v-39.26h-13.66v34.55h-26.23v-34.55h-15.71v39.26H1.09v-74.13h111.2v74.13h-27.8Z"/>
            <path d="M0,647.21C0,621.77,11.78,601.82,36.75,600.25v37.07c-8.17.63-9.58,5.03-9.58,8.48s1.57,6.75,5.5,6.75c15.08-.16,9.58-52.61,47.59-51.99,22.3,0,33.92,18.85,33.92,42.56,0,26.86-12.88,44.13-35.97,45.08v-37.54c6.75-.31,8.8-3.93,8.8-7.7,0-2.83-1.88-5.03-5.65-5.03-13.98,0-11.62,51.67-45.86,51.67-20.42,0-35.5-15.55-35.5-42.41,0,0,0,.02,0,.02Z"/>
          </g>
        </g>
      </g>
    </g>
  </g>
</svg>