<?xml version="1.0" encoding="UTF-8"?>
<svg id="Layer_1" xmlns="http://www.w3.org/2000/svg" version="1.1" viewBox="0 0 1773 1773">
  <!-- Generator: Adobe Illustrator 30.1.0, SVG Export Plug-In . SVG Version: 2.1.1 Build 136)  -->
  <path d="M769.4,237.9c-.3-.2-.4-.6-.2-.9,0-.1.1-.2.3-.2,14.5-7.9,29.7-17.3,45.7-26.4,17.2-9.8,31.2-17.7,41.7-23.8,67.9-39.2,109.1-62.7,123.6-70.7,11.3-6.2,20.9-11.7,29-16.5,4.6-2.7,9.2-3.9,14-3.4,2.6.3,6.8,2,12.6,5.2,18,10,47.2,25.6,70.9,39.9.3.2.5.7.3,1,0,.1-.2.2-.3.3l-253.6,146.4c-.3.1-.6.1-.8,0l-83.1-50.9Z"/>
  <path d="M894.4,312.1c0,0,0-.1.1-.2l252.3-146.9c.6-.3,1.3-.3,1.8,0l88.3,51.6c.3.2.5.6.3,1,0,.1-.2.2-.3.3-5.8,3.3-12.7,6.9-17.7,10-8,5-21.2,13.3-31.5,19-7.6,4.2-14.1,8.3-22.4,13.2-38.2,22.4-79.1,46.3-122.7,71.6-20.4,11.8-38.2,21.4-55.4,32.7-.9.6-2.1.6-3,0-12.5-8.1-23.6-14.2-40.2-23.2-8.5-4.6-16.5-10.1-24.8-14.7-10.7-5.9-18.8-10.5-24.3-13.8-.1,0-.2-.2-.3-.2,0-.1-.1-.2-.1-.3Z"/>
  <path d="M1240,224.5c.4-.1.9.2,1,.6,0,0,0,.1,0,.2v61.7c0,1.2-.6,2.2-1.7,2.8-19.7,11-37.8,21.9-55.6,32.1-46.4,26.4-90.8,52.1-133.3,77.1-1,.6-1.7,1.3-2.2,2.1-.1.2-.2.5-.2.7,0,18.1-.2,31.6-.3,40.5-.1,8.1,0,16.2.4,24.1,0,.4-.3.8-.7.8-.2,0-.3,0-.4-.1-5.8-3.7-11.8-7.1-18.1-10.4-16.2-8.5-26.3-13.7-30.2-15.6-2.7-1.3-5.6-2.1-8.6-2.5-.7,0-1.2-.7-1.2-1.4.6-20.7.5-42.2-.1-64.4,0-1,.5-2,1.4-2.4,10.6-5.5,16.5-8.6,25.5-14.1,7.8-4.7,17-10.1,27.4-16.1,25.8-14.9,52-30.4,78.6-45.9,23.3-13.6,45.6-26.6,66.8-39.1,12.9-7.5,20-12.1,33.5-19.6,5.5-3,11-6.5,16.4-10.2.4-.3.9-.5,1.6-.7Z"/>
  <path d="M893,365.1c.2,0,.4,0,.4-.3,0,0,0,0,0,0v-43.8c-.1-.3.2-.6.5-.6.1,0,.2,0,.3,0,7.1,4.4,13.6,8.4,19.5,11.9,8.8,5.3,19.5,10.5,28,15.7,13.2,8.2,26.1,15.4,38.3,22,1,.5,1.5,1.5,1.5,2.6-.7,23.2-.6,45.4.1,66.6,0,2-.7,3.4-2.3,4.3-10.3,5.4-21.4,11.8-33.4,19.1-6.6,4-12.4,6.8-18.1,10.6-.2.1-.3.1-.5,0-.3,0-.5-.3-.5-.6-.5-10.3-.6-20.5-.5-30.6.3-18.1.3-31.6-.2-40.5-.1-2.3-2.3-3.3-4.2-4.3-17.6-9.5-38.5-22.2-57.4-32.2-8.4-4.4-17.7-9.8-28.1-16-1.2-.7-6.1-3.3-14.6-7.8-4.9-2.6-9.7-5.3-14.4-8.1-13.7-8.3-26.7-15.7-39.1-22.3-.8-.4-1.3-1.2-1.3-2.1v-62.6c0-.3.3-.6.6-.6.1,0,.2,0,.3,0l81.8,50.1c.7.5,1.2,1.3,1.2,2.1-.2,14.6-.3,27.7-.2,39.2,0,2.5,1,4.3,3,5.4,14.8,8,27.5,15.3,38.1,21.9.4.2.7.4,1.1.4Z"/>
  <path d="M1057.8,403.6c5.1-2.8,12.5-7.1,22.2-13.1,14.6-8.8,27.7-16.2,44.6-26,23.9-13.9,49.4-28.2,71.1-41.1,1.6-.9,5.7-3.2,12.4-7,12.8-7.1,21.8-12.4,40.2-23.2,16.6-9.8,31.9-18,46.7-27,4-2.4,8.9-4.9,14-4.6,3.9.3,7.1,1.1,9.6,2.5,26.2,14,51.9,28.2,77,42.6.4.2.6.8.3,1.2,0,.1-.2.2-.3.3l-253.4,146.3c-.6.3-1.3.3-1.8,0l-82.6-50.6c0,0-.1-.1,0-.2s0,0,0,0Z"/>
  <path d="M781.6,327.4c.2.1.3.4.2.6,0,0-.1.1-.2.2l-249.4,144c-.6.4-1.4.4-2,0l-83.1-49.7c-.2-.1-.3-.4-.2-.6,0-.2.2-.4.5-.5,8.3-5.2,15-9.2,19.9-12.1,61-35.9,101.5-59.5,121.5-70.7,43.3-24.3,75.4-42.4,96.3-54.2,3-1.7,5.9-2.8,8.7-3.2,5-.8,10.8,2.3,15.5,5.2,11,6.6,25,14.4,42.1,23.6,10.7,5.7,20.8,11.6,30.2,17.5Z"/>
  <path d="M1528.7,383c.1.3,0,.7-.3.9-25.3,14.4-49,28.1-71.2,41-41.6,24.3-83.2,48.5-124.6,72.6-19.1,11.1-40.1,22.7-58,34-.7.4-1.6.4-2.3,0-17.3-10.9-35.9-21.2-53.7-31.9-13-7.8-24.6-14.2-33.3-19.1-1-.6-1.6-1-1.9-1.4-.4-.5-.3-1.2.2-1.6,0,0,0,0,.1-.1,13.2-7.6,33.3-19.3,60.1-35.1,2.7-1.6,4.2-2.5,4.5-2.6,91.4-53.1,148.7-86.2,171.8-99.5,5.5-3.1,10.9-6,16.3-8.7.6-.3,1.3-.3,1.8,0,31.2,17.3,61,34.1,89.3,50.4.5.3.9.7,1.1,1.2Z"/>
  <path d="M914.4,402.1c.3.2.5.6.3,1,0,.1-.1.2-.3.3l-246.8,143.7c-1,.5-2.1.5-3.1,0-17.5-10.5-35.2-20.6-53.2-30.2-3.2-1.7-7.2-4.4-10.7-6.2-10.2-5.3-18.5-9.2-26.3-14.4-.4-.2-.5-.7-.2-1.1,0,0,.2-.2.3-.2,33.7-19.7,70.2-41,109.5-63.9,5.8-3.4,10.5-6.1,14-8.1,55.7-32.1,96.3-55.6,121.7-70.4,1.8-1,3.5-1.1,5.1-.1,8.2,4.8,15.7,8.3,25.1,13.6,9.8,5.5,20.7,12.1,31.6,17.7.8.4,4.8,2.5,12.2,6.3,7.3,3.8,14.4,8.7,20.7,12.3Z"/>
  <path d="M1336.4,636.8c-.1,0-.3,0-.4-.2-5-3.4-10.9-6.8-17.8-10.4-11.3-5.9-21.6-11.6-30.8-17.3-2.8-1.7-6-2.8-9.6-3.1-.4,0-.8-.4-.8-.9v-66.4c0-.4.2-.8.6-1,8.5-4.4,16.2-8.6,23.1-12.6,6.6-3.9,11.3-6.6,14.2-8.3,18.5-10.7,39.1-22.6,61.7-35.9,3.2-1.9,6.4-3.7,9.6-5.6,34.1-19.7,82.5-47.9,145.2-84.6.3-.2.8,0,1,.3,0,.1,0,.2,0,.4v60.7c0,.9-.5,1.7-1.3,2.2-15.7,8.7-33.9,19.1-54.6,31.1-17.6,10.2-35.6,19.9-53,30.2-18.8,11.1-55.5,31.5-77.7,44.6-2.6,1.6-5.2,3.2-7.8,4.8-.5.3-.8.9-.8,1.5v69.6c0,.4-.3.7-.7.7,0,0,0,0,0,0Z"/>
  <path d="M918.4,409.5c.2-.1.5,0,.7.2,0,0,0,.2,0,.3v66.4c0,.8-.4,1.6-1.1,2-10,6.1-23.6,14-40.7,23.8-55.8,31.8-99.4,57-131.1,75.4-4.2,2.4-9.4,5.8-13.6,8.8-.7.5-1,1.2-1,2v70.5c0,.4-.3.7-.6.7-.1,0-.2,0-.4-.1-9.3-5.9-19.2-11-26.3-15.3-7.7-4.6-18.3-10.4-31.8-17.2-1.1-.5-2-1.2-2.7-2.1-.1-.1-.2-.3-.2-.5v-69.2c0-.8.4-1.5,1.1-1.8,7.2-3.8,15.3-8.3,24.3-13.5,48.8-28,85.8-49.4,110.9-64.1,34.4-20.2,60.3-35.3,77.6-45.1,5-2.8,10.9-6.9,16.6-10,7.1-3.9,13.2-7.5,18.2-10.8Z"/>
  <path d="M1055.1,411.7c0-.2.2-.4.4-.4,0,0,.2,0,.2,0l81.6,50c.5.3.8.8.8,1.3v42.4c0,.9.5,1.6,1.2,2,9.1,4.7,22.1,12.4,39,22.9.4.3.9.5,1.4.7.3.1.7,0,.9-.4,0,0,0-.2,0-.2v-43.8c-.1-.3.1-.5.4-.5,0,0,.2,0,.3,0,20.5,12.3,42.8,25.6,67.1,39.9,7.6,4.5,14.4,8.4,20.4,11.6.6.3,1,.9,1,1.6v69.2c0,.8-.4,1.6-1.2,2l-47.4,28c-.3.2-.7,0-.9-.2,0-.1,0-.2,0-.3l-.2-72c0-.5-.3-.9-.7-1.2-9.2-5.2-20-11.7-29.6-16.6-7.2-3.7-14.1-8.3-21.3-12.2-12.9-6.9-23.8-12.9-32.5-18-18.3-10.7-35.5-19.8-52.3-30.4-8.7-5.5-17.6-9.7-26.9-15-.9-.5-1.4-1.4-1.3-2.4.5-18.6.5-38,0-58.1Z"/>
  <path d="M1683.8,474.2c0,0,0,.2,0,.2l-250.4,145.2c-.5.3-1.1.3-1.6,0l-83.3-51c-.3-.2-.4-.5-.2-.8,0,0,.1-.1.2-.2,10.7-6.2,18.2-10.6,22.6-13.2,8.2-5.1,18.4-10.5,24-13.8,15.9-9.3,39.1-22.5,69.6-39.6,16.7-9.4,35.8-20.4,57.4-32.8,20.9-12.1,43.1-23.8,65.3-36.4,7.9-4.5,15.2-2.8,22.8,1.4,26.4,14.6,49.5,26.8,72.6,40.1.4.2.7.6,1,1Z"/>
  <path d="M570.9,546.7v-43.3c-.1-.2,0-.3.2-.3,0,0,0,0,.1,0,16.6,9.7,34.8,18.8,49.5,27.5,8.4,5,21.6,12.2,39.6,21.8,1.6.9,2.1,1.7,2.1,3.7-.3,11.3-.4,30.7-.3,58.2,0,1.8,0,4.4.2,7.8,0,.8-.4,1.6-1.2,2-5.2,2.5-10.1,4.4-15.2,7.2-15.9,8.7-32.3,18-49.4,27.9-.3.1-.6,0-.7-.2,0,0,0-.2,0-.3l-.2-71c0-.9-.4-1.7-1-2.2-5.4-4.5-11-7.7-18.8-11.9-13.5-7.3-27.1-15.3-40-22.2-6.8-3.7-15-8.3-24.6-13.8-3-1.7-11.2-6.2-24.7-13.6-11.7-6.3-26.6-15.5-41-22.7-1-.5-1.6-1.5-1.6-2.6v-67.5c0-.5.4-.9.9-.9.1,0,.2,0,.3,0,.3.1,1.1.5,2.2,1.1,10.5,5.7,20.9,13,31.7,18.9,14.2,7.8,31.4,20,47.7,28.1.6.3,1,1,1,1.7v42c0,.6.3,1.1.8,1.4l42,23.6c.2,0,.3,0,.4-.1,0,0,0-.1,0-.2Z"/>
  <path d="M741.4,589.2c5.6-3.1,16.1-9.2,31.2-18.3,7.2-4.3,17.7-10.4,31.3-18.2,45.3-25.9,78.4-44.7,118.7-68,14-8.1,28.2-16.1,42.5-24,6.5-3.6,15.4-9.9,23.6-13.9,2-1,2.7-1.3,4.8-.2,8.2,4,12.6,6.5,23.8,12.9,15,8.5,33.9,18,44.8,24.8,5.4,3.4,10.6,6.4,15.6,9.2.3.2.4.6.3.9,0,.1-.1.2-.2.3l-249.8,145.4c-.8.5-1.9.5-2.7,0l-83.9-50c-.2-.1-.3-.4-.2-.7,0,0,.1-.1.2-.2Z"/>
  <path d="M450.5,512.9c.1,0,.2.2,0,.4,0,0,0,0,0,0l-256.7,149.5c-.8.5-1.8.5-2.6,0l-83.2-48.6c-.7-.4-1.1-1.4-.7-2.2,0,0,.4-.3,1.2-.8,2.4-1.5,5.2-2.7,7.5-4.1,8.2-5,16.6-10,25.3-15,65.9-37.9,130.7-75,194.3-111.2,4.1-2.3,9.5-5.3,16.3-8.9,3.7-2,7.1-3.4,10.1-4.3,4.3-1.3,10.4,1.6,14.5,3.8,35.1,19.2,56.9,31.4,65.6,36.4.7.4,3.5,2.1,8.4,5Z"/>
  <path d="M1773,525.7v48.5c-49.6,29.6-99.4,58.8-149.3,87.7-19,11-37.9,22.3-56.6,33.9-1.2.7-2.4.8-3.5.1-16.8-10.2-26.7-16.1-29.8-17.9-13-7.3-22.8-13-29.3-16.9-6.8-4.1-16.6-9.7-29.4-16.8-.6-.3-.8-1-.4-1.6,0-.1.2-.3.3-.4,3.2-2.4,8.5-4.8,11.5-6.6,33-19.5,71-41.9,114.2-67,55.4-32.3,92.6-53.7,111.7-64.3,4.9-2.7,7.6-4.2,8.3-4.6,3.2-1.8,4.5-1.5,7.4.2,15,8.4,30,16.9,44.9,25.5Z"/>
  <path d="M1118.4,517.2c.5-.3,1.1-.3,1.6,0l88.1,49.5c.3.2.4.6.3.9,0,.1-.1.2-.3.3l-247.6,146.3c-.5.3-1.1.3-1.5,0-6.2-3.9-15.3-9.2-27-15.8-18.1-10.2-36.5-20.3-55.2-30.5-3.2-1.8-5.7-3-7.4-3.8-.4-.2-.7-.4-.8-.7-.1-.3,0-.6.2-.7l249.8-145.5Z"/>
  <path d="M583.7,587.4c0,.2,0,.5-.2.6l-256.2,151.4c-.5.3-1.2.3-1.8,0-2.4-1.5-10.4-6.4-23.8-14.6-6.2-3.8-14.2-8.5-24.2-14-13.7-7.7-27.5-15.5-41.4-23.4-.4-.2-.7-.4-.8-.7-.4-.5-.3-1.2.2-1.5,0,0,0,0,.1,0,11.2-6.4,21.8-12.4,31.6-18.1,2.7-1.6,5.2-3.4,7.5-4.8,4.2-2.4,26.9-15.6,68.1-39.5,9.9-5.7,19.5-11.4,29-17,58-34.1,94.5-55.3,109.4-63.6,5.8-3.2,9-5,9.5-5.3.8-.5,1.8-.5,2.6,0,18.6,9.8,37.7,20.7,54.1,29.6,15.6,8.5,19.9,11.2,35.7,20.5.2.1.4.3.5.6Z"/>
  <path d="M1023.7,822.7c-14.7-7.8-25.1-13.5-31.1-17.2-9-5.4-17.8-9.5-28.6-15.3-.6-.3-1-.9-1-1.6-.2-23.5-.3-45.1-.2-64.8,0-1.7.7-3,2-3.7,48.4-28.2,80.4-46.8,95.8-56,44.4-26.4,70.9-42,79.2-46.8,9.3-5.3,21.9-13.4,31.2-18.7,12.5-7.1,22.7-13.1,30.7-18.1,4.1-2.6,7.3-4.6,9.6-6.2.4-.3.9-.2,1.2.2,0,0,0,.1.1.2.2.6.3,1.3.3,2.1-.4,24.7-.4,45.9,0,63.7,0,1.3-.5,2.3-1.6,3-17.5,10.5-48.7,28.1-71.8,42.2-16.4,10-30.2,17.7-45.7,27-22.8,13.6-43.1,25.5-60.7,35.6-2.8,1.6-5.5,3.5-7.9,5.7-.5.4-.7,1-.7,1.6l.2,66.7c0,.3-.2.5-.5.5,0,0-.2,0-.3,0Z"/>
  <path d="M1471.9,694.6c.2,0,.4,0,.4-.2,0,0,0,0,0-.1v-42.3c-.1-.4.2-.7.5-.7.1,0,.2,0,.4,0l86.6,50.6c.6.4,1,1,1,1.7,0,41,0,118.1,0,231.1,0,9.4.3,23.4.6,30.7,0,.4-.3.7-.6.7-.1,0-.3,0-.4,0l-49.5-28.9c-.8-.4-1.2-1.3-1.2-2.2,0-65,0-130.5-.1-196.3,0-3.8-2.2-5.5-5.7-7.4-2.9-1.6-7.8-4.4-14.5-8.4-2.1-1.2-3.4-1.9-3.8-2.1-1.9-.8-3.2-2.1-5.1-3.1-8.1-4.1-16.2-8.7-24.3-13.7-2.6-1.6-8.5-4.9-17.9-9.9-20.4-10.9-39.5-21.6-57.2-32.1-11.4-6.8-22.9-13.2-34.5-19.3-1.3-.7-1.9-1.9-1.9-3.5.6-19,.9-29.9.8-32.7-.5-11.8-.8-21.9-.8-30.3,0-.4.3-.7.7-.7.1,0,.2,0,.3,0l82.3,50.4c.6.3.9,1,.9,1.6-.2,14,0,28,.5,41.9,0,1.2.8,2.1,2.2,2.8,3.1,1.4,6.3,3.1,9.8,5.2,9.9,5.9,19,11.1,27.3,15.7,1,.6,2.1,1,3.3,1.5Z"/>
  <path d="M1773,583.1v265.8c-50.5,29.2-100.9,58.6-151.2,88-15.3,9-25,14.6-29.1,17-8.4,4.9-15,9-19.8,12.1-.8.5-1.7,1-2.7,1.5-.4.2-.9,0-1-.4,0,0,0-.2,0-.3-.4-4.9.4-11.4.4-17.9-.2-59.6-.3-98.2-.3-115.8,0-32.7,0-58.1-.2-76.2-.2-17.6.2-35.4,0-53.3,0-.5.3-.9.7-1.2,13.5-7.9,42.8-25,87.8-51.2,25.7-15,43.4-25.4,53.2-31.3,7.5-4.5,14.9-8.3,21.9-12.9,1.8-1.2,5.6-3.4,11.4-6.6,1.8-1,5.6-3.3,11.3-6.8,5.9-3.6,11.9-7.1,18-10.6Z"/>
  <path d="M588.2,594.1l.2,67.7c0,.9-.5,1.7-1.3,2.2-27.1,15.1-65.6,36.9-115.5,65.5-21.1,12-44.4,25.8-66.6,38.3-4,2.2-7.7,4.6-11.1,7-.6.4-.9,1.1-.9,1.8v195.9c0,.8-.4,1.6-1.2,2l-60.4,35.1c-.3.2-.7,0-.9-.2,0-.1,0-.2,0-.3v-262.2c0-.6.3-1.2.8-1.6,5-3.6,12.7-7.6,25.8-15,8.1-4.6,15.4-8.8,21.9-12.7,15-9.1,31.7-18.6,46.2-27.3,32.3-19.2,56.1-33.3,71.6-42.3,15.4-9,30.3-18.8,47.4-28.3,14-7.7,28.4-16.4,43.2-26.1.3-.2.6,0,.8.2,0,0,0,.2,0,.3Z"/>
  <path d="M865.1,714.9c.2.1.5,0,.6-.2,0,0,0-.1,0-.2v-43.4c-.1-.2,0-.3.2-.3,0,0,.1,0,.2,0,2.1,1.5,6.2,3.7,12,6.5,2,1,6,3.1,12,6.5,24.7,13.7,45.7,25.4,63,35.3,1,.6,1.7,1.3,2,2.1,0,.1,0,.2,0,.4v69.1c0,.5-.2,1-.6,1.2l-60.9,35.1c-.4.2-.8,0-1-.3,0-.1-.1-.2-.1-.4l-.2-72.9c0-.8-.3-1.5-.9-2.1-1.5-1.5-3.3-2.8-5.3-4-10.6-5.9-16.5-9.3-17.7-10.1-12.3-7.7-23.6-13.3-37.7-21.5-15.5-9-33.1-18.4-49-27.8-8.3-4.9-16.4-9.5-24.4-13.7-5.3-2.8-10.8-6.4-16.7-9.9-1.1-.6-1.6-1.7-1.5-3,.2-3.3.3-8,.3-14,0-17.1-.1-33.9-.1-50.4,0-.3.2-.5.5-.5,0,0,.2,0,.3,0,24,15.3,48.8,30.5,74.4,45.7,2.5,1.5,4.9,2.8,7,3.8,1,.5,1.6,1.4,1.6,2.5v41.2c.1.9.6,1.7,1.4,2.2l40.5,22.8Z"/>
  <path d="M1036.2,756.8c-.3-.2-.4-.6-.2-.9,0,0,.1-.2.2-.2,36.8-21.7,67.3-39.6,91.5-53.7,14-8.2,23.9-14,29.7-17.5,11-6.7,20.8-12.4,29.3-17.3,14.3-8.2,28.9-17.3,43.7-25.5,4.2-2.3,8.9-5.1,14.2-8.4,7.7-4.8,15.4-9,22.7-13.4,4-2.4,7.2-3.7,11.7-5.5.9-.4,1.8-.3,2.7,0,10.3,5,19.3,10,30,16.8,6.7,4.3,11.5,7.1,14.4,8.6,12.5,6.4,24.2,13,35.2,19.8,1.6,1,2.9,1.9,4.2,2.8.3.2.3.6.1.9,0,0-.1.1-.2.2l-245.6,143c-.9.5-2,.5-2.9,0l-80.8-49.5Z"/>
  <path d="M103.8,620.3c31,18.6,59.6,35.2,85.7,49.9.2,0,.3.3.3.5v41.7c.1.6.4,1.2,1,1.5l42.2,24.4c.2,0,.3,0,.4-.1,0,0,0-.1,0-.2,0-17.6,0-31.7-.3-42.4,0-.4,0-.7.1-.9.2-.4.7-.5,1-.3,0,0,0,0,0,0,3.3,2.3,6.6,4.4,10,6.3,30.1,17.3,55.4,31.7,75.9,43.1,1.7,1,2.3,1.9,2.2,3.9-.2,74.1-.3,147.6,0,220.3,0,13.7.2,27,.6,39.8,0,.4-.3.7-.7.7-.1,0-.3,0-.4,0-10.4-6.1-18.5-11.4-29.7-17.7-10.8-6.1-21-12-30.7-17.9-5.7-3.5-9.8-5.9-12.4-7.3-6.1-3.4-11.5-7-16.6-9.7-14.9-8-30.3-17.8-44.6-26-17.5-10-26.7-15.3-27.6-15.8-16.4-9.6-35.1-20.2-55.9-31.9-.6-.3-1-1-1-1.7v-260.1c0-.1.1-.3.3-.3,0,0,0,0,.1,0Z"/>
  <path d="M404.3,777c0-.2,0-.4.2-.5,9.9-5.6,19.4-11.1,28.3-16.5,5.3-3.2,10.4-5.8,16.5-9.3,11.2-6.5,24-13.8,38.4-22,61.3-34.8,114.5-64.7,159.6-89.5,5.8-3.2,10.5-6.3,16.2-8.5.6-.3,1.4-.2,2,.1l84.1,47.3c.4.2.5.7.3,1.1,0,.1-.2.3-.3.3-6.3,3.5-9.5,5.3-9.7,5.4-40.4,23.5-119.3,69.4-180.7,104.8-30.6,17.7-52.3,30.3-64.9,37.9-3.3,2-4.2.6-7-1-7.2-4.1-15.8-9.7-23.8-14.3-10.8-6.2-30.3-17.7-58.6-34.6-.3-.2-.5-.4-.6-.6Z"/>
  <path d="M1497.5,736.4c0,.2,0,.4-.2.5l-247.4,147.4c-.8.5-1.7.5-2.5,0-10.2-6.1-19.4-12.5-29.2-18.3-14.4-8.5-25.4-15.1-32.9-20-8.2-5.3-16.9-9.8-24.8-14.8-.5-.3-.6-.9-.3-1.4,0-.1.2-.3.4-.3l245.7-143c.7-.4,1.4-.4,2.1,0,12.5,7.2,25.2,14.3,37.9,21.3,15,8.2,24.2,12.4,36,19.8,3.9,2.5,8.9,5.3,14.9,8.4.2.1.4.3.5.7Z"/>
  <path d="M881.5,753.8c0,.3-.2.5-.4.6-7.5,3.9-15.1,9.3-22.4,13.6-21.8,12.6-44.8,26.7-68.9,40.7-25.8,15-51.5,30-77.2,45.2-29.1,17.1-58.1,34.3-87,51.6-.5.3-1.2.3-1.7,0-46.9-27.4-74.5-43.5-83-48.4-1.4-.8-3.6-2.2-6.4-4.1-.5-.3-.8-.6-.9-.8-.3-.4-.1-1,.3-1.3,0,0,0,0,0,0,80.5-46.7,146.6-85.1,198.5-115.3,18.8-10.9,39.1-22,56.3-32.2,1.7-1,2.8-.7,4.5.2,15.3,8.4,29.4,16.3,42.4,23.8,15.3,8.9,30.1,16.4,45.7,25.9.1,0,.2.3.2.4Z"/>
  <path d="M1501.7,744v262.7c0,.7-.4,1.3-.9,1.6-8.2,4.6-13.2,7.1-19.9,11.2-6.3,3.9-21.7,12.9-46,26.9-12.6,7.3-42.9,25-90.8,53.2-20.9,12.3-44.9,25.6-62.4,36.4-10,6.1-18.5,10.6-28,16.4-.3.2-.7,0-.9-.2,0-.1,0-.2,0-.3,0-87.5,0-173.2-.2-257.2,0-2.2.7-3.7,2-4.5,13.8-8.2,33.4-19.8,58.6-34.9,46.2-27.6,92.7-55.3,139.6-83.1,11.1-6.5,16.6-9.9,16.7-10,0-.1,5.2-3.1,15.4-9,5.5-3.2,10.7-6.5,15.7-9.8.3-.2.8-.1,1,.2,0,.1.1.3.1.4Z"/>
  <path d="M884.6,761.8c.2,0,.3.2.3.4l.2,68.1c0,.7-.4,1.4-1,1.7-8.5,4.7-12.9,7.1-13.2,7.3-13.2,8.1-26.3,15.1-43,24.7-30.7,17.7-56.3,32.1-84.2,48.4-11.3,6.6-27.1,15.7-47.3,27.3-.4.2-2.2,1.4-5.5,3.6-1.4.9-1.7,2.6-1.7,4.4-.3,40.9-.2,94.1.1,159.5,0,6.1.2,16.7.4,31.6,0,.9-.5,1.7-1.2,2.2l-60,35c-.2.1-.5,0-.7-.2,0,0,0-.2,0-.2v-262.7c0-.4.2-.8.6-1,3-1.9,6.6-3.4,9.6-5.2,23.9-13.8,50.2-29.2,79-46.3,9.7-5.8,17.1-10.1,22.2-13,9.9-5.6,18.2-10.8,29.5-17.4,27.6-16,55.4-32.5,83.5-49.5,1.3-.8,3.6-2,6.8-3.8,3.1-1.7,6.2-4,8.9-5.5,6.2-3.5,11.5-6.6,15.6-9.3.5-.3,1-.4,1.4-.2Z"/>
  <path d="M1157.7,839.2c0-.4.3-.6.6-.6.1,0,.2,0,.3,0l85.6,52.4c.4.2.6.6.6,1.1v259.7c0,.2-.1.3-.3.3,0,0-.1,0-.2,0-13.9-7.8-18.2-10.1-31.9-18.5-7-4.3-14.8-8.7-23.2-13.1-1.3-.7-1.9-1.8-2-3.2-.3-7.8.3-20.1.2-30.3-.4-55.6.4-114.8-.4-166.9,0-4.6-4.9-7.4-9-9.6-4.1-2.2-7-3.8-8.5-4.7-8.1-4.9-13.9-7.6-21.4-11.9-23.9-13.7-47.8-27.1-71.6-40.2-9-4.9-17.3-10.9-25.2-15-3.7-2-9.8-5.4-18.2-10.4-.9-.5-1.3-1.6-1.2-3.2.4-11.8-.4-30.2,0-43.1.2-5.8.2-11.9,0-18.1,0-.3.3-.6.6-.6,0,0,.2,0,.3,0,.7.3,1.2.5,1.3.6,8.1,5.5,22.1,14.2,42,26,2.9,1.8,9.9,6.2,20.9,13.4,5.6,3.6,11.5,6.9,17.3,10.3.7.4,1.1,1.1,1.1,1.9v41.3c0,.6.3,1.2.9,1.5l40.9,23.6c.2.1.5,0,.7-.2,0,0,0-.2,0-.2v-42.2Z"/>
  <path d="M618.7,1175.4c-.7-.2-1.3-.6-1.9-1-6.5-4.1-20.5-12.5-42.1-25.1-16.2-9.5-31.6-19.2-48.6-28.7-13.7-7.6-21.2-12.3-33-19.2-15-8.7-30.1-17-45.3-25.6-14.2-8.1-29.4-17.3-45.9-26.7-.7-.4-1.2-1.2-1.1-2v-262.5c0-.2.2-.4.4-.4,0,0,.1,0,.2,0l85.7,51.1c.4.2.7.7.7,1.2v42.1c0,.6.3,1.1.8,1.4l41.5,23.3c.3.2.7,0,.8-.2,0,0,0-.2,0-.3v-42.4c-.1-.6.3-1,.9-1,.2,0,.4,0,.6.2,27.9,17.7,55.2,33.1,86.6,51,.6.3.9,1,.9,1.6-.7,81.5-.2,169.5-.5,245.7,0,5.6.5,11.6.3,16.8,0,.4-.3.6-.7.6,0,0-.1,0-.2,0Z"/>
  <path d="M701,945.9c0,0,.2-.2.5-.4,9.2-5.5,22.5-13.2,40.1-23.3,53.4-30.7,85-48.6,104.4-59.9,12.2-7.1,19.5-11.2,21.8-12.5,10.9-5.8,18.8-10.7,30.1-16.9,3.9-2.1,10.6-6,20-11.6,4.4-2.6,11.1-6.4,20.2-11.2,8.6-4.6,16-8.7,22.2-12.3.8-.4,1.7-.4,2.5,0,12.2,7,22.8,12.8,31.7,17.5,9.8,5.1,20.7,11.9,29.3,16.2,7.7,3.8,12.2,6.9,21.4,12.5.3.2.4.6.2,1,0,.1-.1.2-.3.3l-258.6,150.5c-.4.2-.9.2-1.3,0l-84.1-49.1c-.2-.1-.4-.4-.3-.7Z"/>
  <path d="M1773,857.8v15.5c-33.2,19.2-66.5,38.5-99.7,58-17.9,10.5-49.2,28.1-78,45-8.3,4.9-17.7,10.1-28.4,15.8-.9.5-2,.5-2.9,0l-53.3-31.8c-.7-.4-1.1-1.2-1.1-2,0-5.5-.2-12.6.3-13.1,0,0,.2,0,.4,0,8.8,5.1,16.4,10.4,24.6,15.1,15,8.6,24.8,14.2,29.2,16.8,1.4.8,2.9.8,4.5-.2,1.4-.9,3.3-2.1,5.8-3.5,14.3-8.1,28.4-16.2,42.2-24.3,21.4-12.5,49.6-29.1,84.6-49.5,3.1-1.8,6.2-3.6,9.3-5.4,20.8-12,41.6-24.1,62.6-36.3Z"/>
  <path d="M829,1018.7c-.2-.1-.2-.3,0-.5,0,0,0,0,.1-.1,6.6-3.7,14.5-8.8,22.5-13.5,42.7-25,92.1-53.8,148.2-86.4,30.6-17.8,57.8-34.1,86.3-49.9.5-.3,1.2-.3,1.7,0l88,49.5c.2.1.3.4.2.7,0,0-.1.1-.2.2-7.2,4-12.5,7.1-15.9,9.1-7.7,4.7-12.9,7.9-15.7,9.5-47.2,27.8-94.6,55.8-142.1,84.1-23.9,14.2-47.1,27.7-69.7,40.6-4.5,2.6-8.9,5.2-13.3,8-.8.5-2,.4-3.4-.3-4.8-2.4-10.3-5.4-16.3-9.1-7.4-4.5-12.5-7.5-15.4-9.1-12-6.6-22.3-13.2-34.6-19.8-7-3.8-13.7-8-20.2-12.7Z"/>
  <path d="M1773,882.2v264.6l-203,117.2c-.2.1-.5,0-.6-.2,0,0,0-.1,0-.2v-262.3c0-.6.3-1.2.8-1.5,8.5-5.8,17.6-11.2,27.1-16.4,18-9.7,42.3-24.4,65.4-37.3,8.1-4.5,14.4-8.5,24-14,21.1-12.1,40.7-23.4,58.6-33.9,9.2-5.3,18.4-10.7,27.8-16.1Z"/>
  <path d="M206.3,949.6c0,.3,0,.5-.2.6-4.5,2.6-8.5,4.9-12,6.8-.9.5-1.9.4-2.8,0-18.3-11.1-38.8-22.2-56.5-32.6-11-6.5-19.7-11.8-26.1-15.9-.3-.2-.3-.5-.2-.8,0,0,.1-.1.2-.2l11.6-6.9c.3-.2.7-.2,1,0,17.7,10,33.6,19.1,47.5,27.3,10.1,6,22.4,13,36.9,21.1.3.2.4.4.5.7Z"/>
  <path d="M234.6,990.8c0,0,0-.1.1-.1,0,0,0,0,0,0l86.3,49.8c.9.5,1.4,1.4,1.4,2.4l.7,260.4c0,.3-.3.6-.6.6,0,0-.2,0-.3,0-7-3.6-13.7-8.4-21.1-12.6-14.1-8-23.8-13.5-29-16.5-59-34.1-106-60.5-168.2-96.6-.5-.3-.7-.8-.7-1.3v-262c0-.2.2-.3.3-.3,0,0,.1,0,.2,0l86.1,50.3c.6.3.9,1,.9,1.7v41.9c0,.7.4,1.3.9,1.6l42,24.3c.3.2.6,0,.8-.2,0,0,0-.2,0-.3v-43.1Z"/>
  <path d="M1179.2,924.8c.2,0,.4,0,.5.1,0,0,0,.1,0,.2,0,97.7,0,185.2.3,262.5,0,2-.9,3.5-2.8,4.5-9,5-16.6,9.4-22.8,13.1-14.4,8.7-21.5,13-21.6,13,0,0-28.5,16.6-85.3,49.6-20.9,12.1-53.9,31.4-99.2,57.8-7.8,4.5-16.5,9.7-26.3,15.6-.3.2-.6,0-.8-.2,0,0,0-.2,0-.3-.5-66.7-.5-130.9-.1-192.5.1-21.8-.7-45.3-.6-69.4,0-.8.4-1.5,1.1-1.9,14.8-8.3,33.5-19.1,56.2-32.3,14.1-8.2,28.2-16.6,42.4-25,51.4-30.6,77.8-46.3,79.3-47.1,0,0,11.5-6.8,34.5-20.3,16.2-9.6,31.3-18.7,45.2-27.3Z"/>
  <path d="M825.8,1070v-42.8c-.1-.4.2-.7.5-.7,0,0,.2,0,.3,0,2.2.9,4,2.6,6.4,4,9.5,5.7,19.3,11.4,29.4,17.1,17.2,9.7,29.4,17.1,48.6,28.2,1,.6,1.6,1.9,1.6,3.8,0,121.8,0,189.9,0,204.2-.1,19.8,0,38.4.3,55.9,0,.4-.3.7-.7.8-.1,0-.3,0-.4,0-8.4-4.7-16.5-9.4-24.2-14.1-12.6-7.7-26.8-15-41.3-23.8-12.4-7.6-23.7-14.1-34-19.6-7.1-3.8-12.4-7.3-20.4-12.2-3.2-1.9-16.3-9.4-39.5-22.5-14.5-8.2-29.1-17.1-44.7-25.6-4.6-2.5-7.8-4.4-9.8-5.7-.4-.3-.6-.7-.7-1.2v-261.9c0-.2.1-.3.3-.3,0,0,.1,0,.2,0l83.9,49c.6.4,1,1,1,1.7v40.7c0,.7.4,1.4,1,1.8l41.7,23.5c.1,0,.3,0,.4-.1,0,0,0,0,0-.1Z"/>
  <path d="M1494.2,1021.1c-.2-.2-.3-.5-.1-.8,0,0,0-.1.2-.1l14.7-8.8c.5-.3.8-.9.9-1.5v-39.7c0-.4.3-.7.7-.7.1,0,.2,0,.3,0,11.3,6.7,16.8,10.1,26.8,15.8,7,3.9,13.7,8,20.2,12.2,1.2.8,2.2,1.6,2.8,2.6.2.3.3.6.3.9,0,2,.1,4.3.1,7.1-.1,123.8-.1,200.6,0,230.3,0,7.7.2,16.3.6,25.6,0,.4-.3.7-.7.7-.1,0-.3,0-.4,0l-49.3-29.4c-.9-.6-1.5-1.6-1.5-2.7v-198.9c0-.8-.4-1.5-1-2l-14.7-10.7Z"/>
  <path d="M239.9,985c-.2,0-.2-.3-.1-.5,0,0,0,0,.1-.1l12.1-7c.6-.4,1.4-.4,2,0,11.5,6.4,20.6,11.7,27.5,15.9,15.3,9.4,28.7,16.2,42.8,24.8,3.3,2,4.8,1.6,8-.2,2.7-1.6,5.8-3.6,9-5.2,9.9-5.1,20.7-11.4,32.5-18.8,6.2-3.9,12.4-7.5,18.7-10.7.3-.1.6,0,.7.2,0,0,0,.1,0,.2v12.5c0,.8-.4,1.5-1.1,1.9l-63.7,36.8c-.6.4-1.4.4-2.1,0l-86.4-49.8Z"/>
  <path d="M409.9,1063.1c.2,0,.2.3.1.5,0,0,0,0-.1.1l-16.4,9.8c-.3.2-.5.5-.5.9,0,48.5,0,104.1-.1,166.9,0,4.3-.1,12.4-.3,24.3,0,1.5-.6,2.5-1.7,3.1-20.3,11.6-40,23.2-59.2,34.7-.3.1-.6,0-.7-.2,0,0,0-.2,0-.3v-259.5c0-.8.4-1.4,1-1.8l60.3-35.1c.3-.1.6,0,.7.2,0,0,0,.2,0,.3v45.6c0,.4.2.8.6,1l16.4,9.4Z"/>
  <path d="M1187.5,1128.5c0-.3.3-.6.6-.6.1,0,.2,0,.3,0,6.5,4.3,13.3,8.4,20.6,12.4,13.7,7.5,24.5,14.6,37.2,21.5,2.4,1.3,3.2,1.4,5.7,0,17.8-10.4,28-16.4,30.6-17.8,20.1-11.2,41.1-23.4,63.1-36.5,7.9-4.7,21.1-12,31.4-18.6,2.1-1.3,5.3-2.8,7.1-3.9,51.6-30.5,76.2-45.2,100.3-58.7.6-.3,1.3-.3,1.9,0l11.4,6.7c.2.1.3.4.2.6,0,0,0,.1-.2.2l-248,144.4c-.4.2-.9.2-1.4,0l-59.5-34.8c-.8-.4-1.3-1.3-1.3-2.2v-12.7Z"/>
  <path d="M1501.9,1040.7c0,79.7,0,166.2.3,259.3,0,3.5-.8,3.1-3.8,4.8-82.5,48.4-154.9,90.2-244.9,142.8-.2.1-.6,0-.7-.2,0,0,0-.2,0-.3v-261.9c0-.7.4-1.3,1-1.5,3.4-1.5,6.2-2.7,9-4.4,32.1-18.9,51.9-30.4,59.3-34.7.6-.3,8.1-4.7,22.6-13.1,47.2-27.4,82.8-48.1,106.6-61.9,18.3-10.6,32.9-20.1,49.7-29.6.3-.2.7,0,.9.3,0,0,0,.2,0,.3Z"/>
  <path d="M419.5,1068.2l83.7,48.3c.3.2.4.6.3,1,0,.1-.2.2-.3.3l-12.9,6.6c-.2.1-.5.1-.7,0l-83.7-48.3c-.3-.2-.4-.6-.3-1,0-.1.2-.2.3-.3l12.9-6.6c.2-.1.5-.1.7,0Z"/>
  <path d="M531.7,1157.6c0-.2.1-.3.3-.3,0,0,0,0,.1,0l86.1,49.7c.7.4,1.1,1.1,1.1,1.9v260.6c0,.4-.3.7-.7.7-.1,0-.2,0-.3,0-19.4-11.5-40.7-23.3-59.1-34-19.2-11.1-53.1-30.7-101.7-58.7-17-9.8-35.2-20.2-54.8-31.2-1.2-.7-1.8-1.7-1.8-3-.1-9.1-.1-16.1,0-20.8,0-4,0-84.1,0-240.4,0,0,0-.1.1-.1,0,0,0,0,0,0,7.9,4.8,15.8,9.3,23.8,13.8,8.5,4.7,17.5,10.7,25.8,15.3,7.4,4.1,19.6,10.9,36.4,20.2.5.3.9.9.9,1.5v41.8c0,1,.5,1.8,1.3,2.3l41.5,24c.3.2.7,0,.9-.2,0,0,0-.2,0-.3v-42.7Z"/>
  <path d="M537.3,1150.8l11.8-6.8c.5-.3,1-.3,1.5,0l71.5,41.7c1.2.7,2.6.7,3.8.1,16.6-8.5,31.5-18.4,48.3-27.6,5.7-3.1,10.6-6,14.6-8.5.2-.1.5,0,.7.1,0,0,0,.2,0,.3v12.3c0,.8-.4,1.5-1.1,1.9-8,4.7-14.1,8.7-20.9,12.4-13.4,7.4-17,9.5-28,16.1-4.1,2.5-8.9,5.1-14.5,7.9-.5.3-1.1.3-1.6,0-16.3-8.3-37.5-21.5-47.7-27.2-8.9-5-21.7-12.4-38.4-22.1-.2-.1-.2-.3-.1-.5,0,0,0-.1.1-.1Z"/>
  <path d="M1187.6,1152.2c0-.2.2-.4.4-.4,0,0,.2,0,.2,0l55,32.1c.8.5,1.2,1.3,1.2,2.2v261.1c0,.4-.3.7-.6.7-.1,0-.2,0-.3,0-18-10.9-35.7-21.2-53.1-30.8-1.2-.7-2.1-1.5-2.6-2.5,0-.1-.1-.3-.1-.5v-198.6c0-.6-.3-1.2-.9-1.6l-15.1-8.5c-.3-.2-.4-.5-.2-.8,0,0,.1-.2.2-.2,4.8-2.7,9.2-5.2,13.1-7.5,2-1.2,3-2.9,3-5.2,0-5.7,0-18.8-.1-39.4Z"/>
  <path d="M689.7,1173.2v47.2c0,.5.3.9.7,1.1l16,9.3c.2.1.3.4.2.7,0,0-.1.1-.2.2l-16.2,9.4c-.4.3-.7.7-.7,1.2-.2,54.5-.2,117.5,0,188.9,0,2-1.4,2.6-3.3,3.7-20.1,11.8-39.2,23.3-57.4,34.5-.4.2-.9.1-1.1-.3,0-.1-.1-.3-.1-.4v-260.2c0-.4.2-.7.5-.9,8.8-5.1,14.4-8.2,16.8-9.4,6.1-3.2,11.7-6.4,16.8-9.5,1.9-1.2,10.9-6.5,27.2-16.2.3-.2.7,0,.8.2,0,0,0,.2,0,.3Z"/>
  <path d="M1175,1216.4c0,.3-.3.5-.8.8-62.6,36.9-130.6,76.6-203.9,119.3-15.8,9.2-24.2,14.1-25.2,14.6-4,2.1-7.9,4.4-11.7,6.8-7.1,4.4-10.9,7-15.2,8.7-.9.4-2,.3-2.9-.2l-83.4-48.2c-.3-.2-.3-.5-.2-.7,0,0,.1-.1.2-.2l10.7-6.3c1-.6,2.1-.6,3.1,0,6.3,3.5,10.8,6.1,13.4,7.7,11.1,6.7,17.4,10.5,19.1,11.4,10.6,5.9,22.4,12.6,35.3,20.2,2.6,1.6,5.2,1.6,7.7.2,6.7-3.9,11-6.4,12.9-7.5,17.6-10.5,35.4-20.6,53-30.9,57.6-33.6,117.9-69.1,172.5-100.6,2.1-1.2,3.5-2.4,5.9-1,2,1.2,5.2,3,9.3,5.3.2.1.3.4.2.6Z"/>
  <path d="M1179.4,1223.1c.2,0,.5,0,.5.3,0,0,0,0,0,.1l.2,264.3c0,.8-.4,1.5-1.1,1.8l-257.5,148.7c-.2,0-.4,0-.5-.1,0,0,0-.1,0-.2.3-37.8.2-85.3-.1-142.5-.3-41.4-.5-81.7-.7-121.1,0-.4.2-.8.6-1,8.5-4.3,16.9-9,25.1-13.9,2.9-1.8,10.5-6.2,22.8-13.4,11.8-6.9,28.4-16.5,49.7-28.8,4.8-2.8,8.3-4.9,10.7-6.3,4.7-2.9,9.2-5.2,14.4-8.3,25.5-15.2,51.6-30,76.3-44.8,6.5-3.8,26.1-15.3,58.8-34.5.4-.2.7-.4.9-.4Z"/>
  <path d="M702.3,1243.3c-.1-.2-.1-.4,0-.5,0,0,0,0,0,0l11.8-6.8c.3-.2.8-.2,1.1,0,11.7,6.8,23.5,12.9,35.9,20.2,15.7,9.4,30.9,18.2,45.7,26.4.2.1.4.3.6.4.3.3.3.7,0,1,0,0,0,0-.1,0l-12.3,7.1c-.6.3-1.3.3-1.9,0-10.4-6.5-22.1-13.3-35-20.6-14.8-8.3-29.9-17.2-45.3-26.7-.3-.2-.5-.4-.6-.5Z"/>
  <path d="M826.3,1324.8c0-.3.2-.5.5-.5,0,0,.2,0,.2,0l84.5,48.8c.5.3.8.8.8,1.3l.8,262.9c0,.5-.4.9-.9.9-.2,0-.3,0-.5-.1l-213.4-123.2c-.5-.3-.8-.8-.8-1.4v-263.5c0-.1.1-.3.3-.3,0,0,0,0,.1,0,24,14,46.3,27,66.9,39.1,5,2.9,10.4,5.8,16.1,8.7.9.4,1.5,1.4,1.5,2.4v42.6c.1.3.3.6.6.8l42.6,24.6c.3.2.7,0,.9-.2,0,0,0-.2,0-.3v-42.6Z"/>
</svg>